<?xml version="1.0" encoding="UTF-8" standalone="no"?>
<!-- Creator: CorelDRAW 2020 (64-Bit) -->

<svg
   xmlns:dc="http://purl.org/dc/elements/1.1/"
   xmlns:cc="http://creativecommons.org/ns#"
   xmlns:rdf="http://www.w3.org/1999/02/22-rdf-syntax-ns#"
   xmlns:svg="http://www.w3.org/2000/svg"
   xmlns="http://www.w3.org/2000/svg"
   xmlns:sodipodi="http://sodipodi.sourceforge.net/DTD/sodipodi-0.dtd"
   xmlns:inkscape="http://www.inkscape.org/namespaces/inkscape"
   xml:space="preserve"
   width="300"
   height="300"
   version="1.1"
   style="clip-rule:evenodd;fill-rule:evenodd;image-rendering:optimizeQuality;shape-rendering:geometricPrecision;text-rendering:geometricPrecision"
   viewBox="0 0 7937.4998 7937.5002"
   id="svg2663"
   sodipodi:docname="logo.svg"
   inkscape:version="0.92.5 (2060ec1f9f, 2020-04-08)"><metadata
   id="metadata2667"><rdf:RDF><cc:Work
       rdf:about=""><dc:format>image/svg+xml</dc:format><dc:type
         rdf:resource="http://purl.org/dc/dcmitype/StillImage" /><dc:title></dc:title></cc:Work></rdf:RDF></metadata><sodipodi:namedview
   pagecolor="#ffffff"
   bordercolor="#666666"
   borderopacity="1"
   objecttolerance="10"
   gridtolerance="10"
   guidetolerance="10"
   inkscape:pageopacity="0"
   inkscape:pageshadow="2"
   inkscape:window-width="1920"
   inkscape:window-height="976"
   id="namedview2665"
   showgrid="false"
   units="px"
   inkscape:zoom="2.0107307"
   inkscape:cx="124.75104"
   inkscape:cy="178.63956"
   inkscape:window-x="0"
   inkscape:window-y="1051"
   inkscape:window-maximized="1"
   inkscape:current-layer="svg2663" />
 <defs
   id="defs1830">
  <style
   type="text/css"
   id="style1761">
   <![CDATA[
    .str0 {stroke:#2B2A29;stroke-width:20;stroke-miterlimit:22.9256}
    .fil31 {fill:#FEFEFE}
    .fil2 {fill:#FEFEFE}
    .fil32 {fill:#C4E6FA}
    .fil33 {fill:#A2D9F7}
    .fil34 {fill:#57B3E5}
    .fil29 {fill:#252422}
    .fil3 {fill:#22529A}
    .fil30 {fill:#007DC4}
    .fil1 {fill:#294688}
    .fil26 {fill:#542D00}
    .fil20 {fill:#8C9CA8}
    .fil18 {fill:#FEFEFE;fill-rule:nonzero}
    .fil94 {fill:#FAF9FA;fill-rule:nonzero}
    .fil114 {fill:#F8F8FA;fill-rule:nonzero}
    .fil105 {fill:#F6F8F9;fill-rule:nonzero}
    .fil111 {fill:#F1F1F5;fill-rule:nonzero}
    .fil81 {fill:#F1EDF4;fill-rule:nonzero}
    .fil101 {fill:#EFF0F5;fill-rule:nonzero}
    .fil92 {fill:#EBEBF0;fill-rule:nonzero}
    .fil116 {fill:#E8E8EF;fill-rule:nonzero}
    .fil95 {fill:#E7E8EF;fill-rule:nonzero}
    .fil103 {fill:#E4E5EB;fill-rule:nonzero}
    .fil68 {fill:#E4E3EA;fill-rule:nonzero}
    .fil106 {fill:#DFE8E8;fill-rule:nonzero}
    .fil102 {fill:#DEDFE9;fill-rule:nonzero}
    .fil90 {fill:#DEDCE7;fill-rule:nonzero}
    .fil115 {fill:#DDEAF3;fill-rule:nonzero}
    .fil108 {fill:#DDE3DF;fill-rule:nonzero}
    .fil86 {fill:#DBD9E3;fill-rule:nonzero}
    .fil100 {fill:#D8D9E4;fill-rule:nonzero}
    .fil109 {fill:#4E565A;fill-rule:nonzero}
    .fil98 {fill:#D3D4E0;fill-rule:nonzero}
    .fil67 {fill:#D3D2DD;fill-rule:nonzero}
    .fil93 {fill:#CFCCDA;fill-rule:nonzero}
    .fil107 {fill:#CDD8CE;fill-rule:nonzero}
    .fil82 {fill:#CBCBDA;fill-rule:nonzero}
    .fil88 {fill:#C9C8D3;fill-rule:nonzero}
    .fil61 {fill:#C9C4D0;fill-rule:nonzero}
    .fil113 {fill:#C9DFAC;fill-rule:nonzero}
    .fil97 {fill:#C4C6D3;fill-rule:nonzero}
    .fil110 {fill:#C2D0C5;fill-rule:nonzero}
    .fil112 {fill:#C0C3D0;fill-rule:nonzero}
    .fil87 {fill:#BEBDCC;fill-rule:nonzero}
    .fil99 {fill:#C1DBA0;fill-rule:nonzero}
    .fil104 {fill:#C1D113;fill-rule:nonzero}
    .fil96 {fill:#B6B8C6;fill-rule:nonzero}
    .fil85 {fill:#B8B6C5;fill-rule:nonzero}
    .fil71 {fill:#B4B7C3;fill-rule:nonzero}
    .fil60 {fill:#B1ADBA;fill-rule:nonzero}
    .fil69 {fill:#A1ADBD;fill-rule:nonzero}
    .fil84 {fill:#A0A1AF;fill-rule:nonzero}
    .fil72 {fill:#99A1AF;fill-rule:nonzero}
    .fil91 {fill:#9B9BA9;fill-rule:nonzero}
    .fil70 {fill:#939AAA;fill-rule:nonzero}
    .fil73 {fill:#8E9AA8;fill-rule:nonzero}
    .fil89 {fill:#95C12B;fill-rule:nonzero}
    .fil83 {fill:#8F8F9D;fill-rule:nonzero}
    .fil64 {fill:#8F8E99;fill-rule:nonzero}
    .fil62 {fill:#7B8492;fill-rule:nonzero}
    .fil65 {fill:#717681;fill-rule:nonzero}
    .fil63 {fill:#6E707C;fill-rule:nonzero}
    .fil7 {fill:#58B1E3;fill-rule:nonzero}
    .fil66 {fill:#686F79;fill-rule:nonzero}
    .fil6 {fill:#4FA5DB;fill-rule:nonzero}
    .fil8 {fill:#3A96D2;fill-rule:nonzero}
    .fil5 {fill:#2A86C7;fill-rule:nonzero}
    .fil10 {fill:#1C76BB;fill-rule:nonzero}
    .fil9 {fill:#1963AB;fill-rule:nonzero}
    .fil11 {fill:#22529A;fill-rule:nonzero}
    .fil4 {fill:#294688;fill-rule:nonzero}
    .fil12 {fill:#303E77;fill-rule:nonzero}
    .fil22 {fill:black;fill-rule:nonzero}
    .fil48 {fill:#0A080D;fill-rule:nonzero}
    .fil57 {fill:#0A0D12;fill-rule:nonzero}
    .fil45 {fill:#17151A;fill-rule:nonzero}
    .fil56 {fill:#1D242E;fill-rule:nonzero}
    .fil58 {fill:#2E3641;fill-rule:nonzero}
    .fil47 {fill:#303231;fill-rule:nonzero}
    .fil39 {fill:#313133;fill-rule:nonzero}
    .fil19 {fill:#414042;fill-rule:nonzero}
    .fil28 {fill:#542D00;fill-rule:nonzero}
    .fil43 {fill:#6D6D72;fill-rule:nonzero}
    .fil35 {fill:#787777;fill-rule:nonzero}
    .fil46 {fill:#7A6B6E;fill-rule:nonzero}
    .fil21 {fill:#8C9CA8;fill-rule:nonzero}
    .fil27 {fill:#9C5200;fill-rule:nonzero}
    .fil25 {fill:#B1B1B1;fill-rule:nonzero}
    .fil49 {fill:#B1B1B2;fill-rule:nonzero}
    .fil24 {fill:#B8DAE8;fill-rule:nonzero}
    .fil55 {fill:#C7C6CD;fill-rule:nonzero}
    .fil40 {fill:#D2D3D7;fill-rule:nonzero}
    .fil37 {fill:#D5D3DA;fill-rule:nonzero}
    .fil54 {fill:#DAD8DE;fill-rule:nonzero}
    .fil42 {fill:#DCDCE0;fill-rule:nonzero}
    .fil52 {fill:#DCDCE1;fill-rule:nonzero}
    .fil41 {fill:#DDDDE2;fill-rule:nonzero}
    .fil53 {fill:#DEDDE2;fill-rule:nonzero}
    .fil59 {fill:#E3E3E7;fill-rule:nonzero}
    .fil44 {fill:#E3E4E6;fill-rule:nonzero}
    .fil36 {fill:#E3E4E7;fill-rule:nonzero}
    .fil51 {fill:#E7E7EA;fill-rule:nonzero}
    .fil50 {fill:#EAEBED;fill-rule:nonzero}
    .fil38 {fill:#F1F2F3;fill-rule:nonzero}
    .fil23 {fill:white;fill-rule:nonzero}
    .fil79 {fill:url(#id0)}
    .fil80 {fill:url(#id1)}
    .fil75 {fill:url(#id2)}
    .fil76 {fill:url(#id3)}
    .fil78 {fill:url(#id4)}
    .fil74 {fill:url(#id5)}
    .fil77 {fill:url(#id6)}
    .fil13 {fill:url(#id7)}
    .fil16 {fill:url(#id8)}
    .fil17 {fill:url(#id9)}
    .fil15 {fill:url(#id10)}
    .fil14 {fill:url(#id11)}
    .fil0 {fill:url(#id12)}
   ]]>
  </style>
  <linearGradient
   id="id0"
   gradientUnits="userSpaceOnUse"
   x1="5289.8599"
   y1="17329.381"
   x2="5289.8599"
   y2="19855.41">
   <stop
   offset="0"
   style="stop-opacity:1; stop-color:#76CEFA"
   id="stop1763" />
   <stop
   offset="1"
   style="stop-opacity:1; stop-color:#00A4FF"
   id="stop1765" />
  </linearGradient>
  <linearGradient
   id="id1"
   gradientUnits="userSpaceOnUse"
   x1="5289.8599"
   y1="16218.27"
   x2="5289.8599"
   y2="17329.381">
   <stop
   offset="0"
   style="stop-opacity:1; stop-color:#C5EBFF"
   id="stop1768" />
   <stop
   offset="1"
   style="stop-opacity:1; stop-color:#3DB7FF"
   id="stop1770" />
  </linearGradient>
  <linearGradient
   id="id2"
   gradientUnits="userSpaceOnUse"
   x1="8177.8101"
   y1="17326.859"
   x2="6164.0698"
   y2="15873.22">
   <stop
   offset="0"
   style="stop-opacity:1; stop-color:#1FB5FF"
   id="stop1773" />
   <stop
   offset="1"
   style="stop-opacity:1; stop-color:#B2DAF4"
   id="stop1775" />
  </linearGradient>
  <linearGradient
   id="id3"
   gradientUnits="userSpaceOnUse"
   x1="3535.3401"
   y1="15870.7"
   x2="7044.3301"
   y2="15870.7">
   <stop
   offset="0"
   style="stop-opacity:1; stop-color:#68B6DE"
   id="stop1778" />
   <stop
   offset="1"
   style="stop-opacity:1; stop-color:#0094E9"
   id="stop1780" />
  </linearGradient>
  <linearGradient
   id="id4"
   gradientUnits="userSpaceOnUse"
   x1="4498.27"
   y1="15965.32"
   x2="2318.73"
   y2="17234.801">
   <stop
   offset="0"
   style="stop-opacity:1; stop-color:#0389D7"
   id="stop1783" />
   <stop
   offset="1"
   style="stop-opacity:1; stop-color:#80C2E6"
   id="stop1785" />
  </linearGradient>
  <linearGradient
   id="id5"
   gradientUnits="userSpaceOnUse"
   x1="7605.8101"
   y1="16573.42"
   x2="5858.9102"
   y2="20039.76">
   <stop
   offset="0"
   style="stop-opacity:1; stop-color:#36ACEC"
   id="stop1788" />
   <stop
   offset="1"
   style="stop-opacity:1; stop-color:#009EF7"
   id="stop1790" />
  </linearGradient>
  <linearGradient
   id="id6"
   gradientUnits="userSpaceOnUse"
   x1="2931.97"
   y1="16578.221"
   x2="4762.2002"
   y2="20034.881">
   <stop
   offset="0"
   style="stop-opacity:1; stop-color:#51ABDB"
   id="stop1793" />
   <stop
   offset="1"
   style="stop-opacity:1; stop-color:#0093E6"
   id="stop1795" />
  </linearGradient>
  <linearGradient
   id="id7"
   gradientUnits="userSpaceOnUse"
   x1="968.04999"
   y1="-10409.3"
   x2="36224.199"
   y2="-45771.699">
   <stop
   offset="0"
   style="stop-opacity:1; stop-color:#1C4D72"
   id="stop1798" />
   <stop
   offset="1"
   style="stop-opacity:1; stop-color:#90D1E3"
   id="stop1800" />
  </linearGradient>
  <linearGradient
   id="id8"
   gradientUnits="userSpaceOnUse"
   x1="6543.23"
   y1="-11092.92"
   x2="30448.09"
   y2="-35069.801">
   <stop
   offset="0"
   style="stop-opacity:1; stop-color:#1F5C80"
   id="stop1803" />
   <stop
   offset="1"
   style="stop-opacity:1; stop-color:#8DD1E3"
   id="stop1805" />
  </linearGradient>
  <linearGradient
   id="id9"
   gradientUnits="userSpaceOnUse"
   x1="6543.23"
   y1="-11092.92"
   x2="30448.09"
   y2="-35069.801">
   <stop
   offset="0"
   style="stop-opacity:1; stop-color:#167A98"
   id="stop1808" />
   <stop
   offset="1"
   style="stop-opacity:1; stop-color:#8ACFE1"
   id="stop1810" />
  </linearGradient>
  <linearGradient
   id="id10"
   gradientUnits="userSpaceOnUse"
   x1="6543.23"
   y1="-11092.92"
   x2="30448.09"
   y2="-35069.801">
   <stop
   offset="0"
   style="stop-opacity:1; stop-color:#1B6D8D"
   id="stop1813" />
   <stop
   offset="1"
   style="stop-opacity:1; stop-color:#89CFE3"
   id="stop1815" />
  </linearGradient>
  <linearGradient
   id="id11"
   gradientUnits="userSpaceOnUse"
   x1="6543.2202"
   y1="-24392.66"
   x2="30448.1"
   y2="-48369.52">
   <stop
   offset="0"
   style="stop-opacity:1; stop-color:#196789"
   id="stop1818" />
   <stop
   offset="1"
   style="stop-opacity:1; stop-color:#8DD1E3"
   id="stop1820" />
  </linearGradient>
  <radialGradient
   id="id12"
   gradientUnits="userSpaceOnUse"
   gradientTransform="matrix(1.4821,0,0,1.4821,-5196,-7908)"
   cx="10778.86"
   cy="16403.41"
   r="4660.71"
   fx="10778.86"
   fy="16403.41">
   <stop
   offset="0"
   style="stop-opacity:1; stop-color:#FEFEFE"
   id="stop1823" />
   <stop
   offset="0.588235"
   style="stop-opacity:1; stop-color:#F0F6FC"
   id="stop1825" />
   <stop
   offset="1"
   style="stop-opacity:1; stop-color:#008DD2"
   id="stop1827" />
  </radialGradient>
 
  
  
  
  
  
  
  
  
  
  
  
  
  
  
  
  
  
 </defs>
 <g
   id="g3301"
   transform="matrix(0.40919139,0,0,0.40919139,-511.2245,-2520.2359)"><path
     class="fil0"
     d="m 2328.54,16792.59 c -40.95,-342.03 -62.57,-690 -62.57,-1043.06 0,-4797.49 3889.13,-8686.62 8686.62,-8686.62 4797.49,0 8686.62,3889.13 8686.62,8686.62 0,353.06 -21.62,701.03 -62.57,1043.06 z"
     id="path1833"
     style="fill:url(#id12)"
     inkscape:connector-curvature="0" /><path
     class="fil1"
     d="m 2265.97,16661.67 h 17332.2 c -24.32,75.67 -50.59,150.73 -77.93,225.41 H 2343.9 c -27.33,-74.68 -53.61,-149.74 -77.93,-225.41 z"
     id="path1835"
     inkscape:connector-curvature="0"
     style="fill:#294688" /><path
     class="fil4"
     d="m 9041.29,15703.45 -86.25,814.33 -1.97,18.71 -10.49,14.62 -197.04,274.77 -20.78,29 h -35.59 -511.13 -11.49 l -11,-3.79 -478.89,-164.88 -66.05,-22.75 23.24,-65.86 65.93,-186.84 5.88,-16.66 13.08,-11.8 53.58,-48.32 -3.15,-55.72 c -14.33,-254.21 -21.49,-508.34 -28.73,-766.19 l -1.04,-36.61 -141.38,-192.64 -81.05,230.2 -15.86,106.05 -15.7,105.05 -20.66,138.02 -34.44,418.07 -2.87,34.9 -30.45,18.48 -290.65,176.34 -16.52,10.03 -19.24,-0.01 -614.64,-0.47 -13.45,-0.02 -11.74,-4.59 -163.55,-64.1 -191.69,-75.12 -44.18,-17.32 v -47.17 -146.55 -21.49 l 13,-18.34 140.89,-198.87 -8.06,-25.02 -26.8,-13.83 h -0.28 l -49.56,-25.75 -33.88,-17.62 -3.23,-38.21 c -13.43,-159.33 -21.37,-270.6 -26.1,-387.24 -4.76,-117.65 -5.98,-231.17 -5.98,-394.88 v -0.26 l 0.54,-5.97 23.62,-260.34 c -100.19,-56.5 -191.38,-108.8 -191.69,-108.97 l -12.03,-7.02 -8.56,-11.4 -246.87,-329.1 -24.56,50.34 -50.1,460.73 -2.01,18.57 -11,15.03 -431.45,589.35 -71.14,317.23 -7.75,34.62 -32.62,13.88 -268.5,114.29 -4.61,1.95 -6.51,1.57 -142.87,34.28 -12.18,2.92 -12.47,-1.57 -36.27,-4.59 -272.96,-34.77 h -1.32 l -3.13,-0.28 -1.57,-0.14 0.02,-0.24 -0.35,-0.02 -1.96,-0.18 v -0.02 l -2.18,-0.19 h -0.11 l -0.02,0.25 -2.7,-0.24 v -0.01 h -0.19 l -3.03,-0.26 -0.23,-0.03 -3.34,-0.29 -0.28,-0.14 -0.02,0.11 -3.62,-0.32 -1.62,-0.26 -0.37,-0.05 0.01,-0.13 -2.28,-0.21 h -0.26 l -0.44,-0.04 -3.32,-0.31 -0.01,0.19 -0.52,-0.04 -0.8,-0.26 -4.37,-0.4 h -0.28 l -0.58,-0.06 v -0.03 l -3.75,-0.33 -0.01,0.21 -0.67,-0.06 -0.54,-0.26 -4.79,-0.44 h -0.27 l -0.74,-0.07 v -0.03 l -4.67,-0.43 h -0.55 l -0.83,-0.08 v -0.06 l -4.58,-0.42 h -1.08 l -0.91,-0.09 0.01,-0.1 -4.18,-0.39 h -0.27 l -1.02,-0.1 -5.37,-0.51 h -0.26 l -1.1,-0.11 v -0.03 l -5.23,-0.5 v -0.03 l -0.9,-0.08 h -0.27 l -5.58,-0.54 -1.28,-0.12 h -0.26 l -5.65,-0.56 -1.37,-0.14 v -0.03 l -5.44,-0.52 h -0.54 l -1.47,-0.16 v -0.02 l -5.48,-0.54 h -0.54 l -1.54,-0.17 v -0.06 l -6.9,-0.69 -5.8,-0.58 h -0.28 l -1.73,-0.18 -5.8,-0.6 h -0.26 l -1.82,-0.19 v -0.03 l -5.54,-0.57 h -0.26 l -1.9,-0.21 v -0.03 l -5.51,-0.58 -1.97,-0.21 h -0.26 l -5.75,-0.61 -2.05,-0.22 -5.69,-0.62 h -0.28 l -2.13,-0.24 v -0.03 l -5.36,-0.58 h -0.28 l -2.2,-0.25 v -0.03 l -5.27,-0.58 h -0.54 l -2.28,-0.26 v -0.03 l -5.22,-0.6 -2.33,-0.26 h -0.26 l -5.38,-0.63 -2.39,-0.27 h -0.28 l -7.73,-0.92 v -0.03 l -4.89,-0.58 h -0.54 l -2.49,-0.31 v -0.02 l -4.78,-0.59 -2.53,-0.3 h -0.26 l -4.93,-0.61 -0.55,-0.28 -1.97,-0.26 -0.03,0.21 -4.79,-0.6 -0.27,-0.28 -2.59,-0.33 -4.63,-0.6 h -0.28 l -2.59,-0.35 -4.5,-0.59 h -0.54 l -2.59,-0.36 v -0.04 l -4.07,-0.55 h -0.27 l -2.6,-0.36 -4.16,-0.58 h -0.26 l -2.6,-0.37 -6.56,-0.96 h -0.28 l -3.81,-0.57 h -0.27 l -2.54,-0.39 -3.63,-0.55 -0.54,-0.27 -2.51,-0.4 h -0.28 l -8.76,-1.43 h -0.8 l -8.17,-1.43 -0.28,-0.27 -2.84,-0.52 h -0.82 l -2.25,-0.43 -2.64,-0.51 h -0.54 l -2.15,-0.43 -0.26,-0.26 -2.44,-0.5 h -0.28 l -2.04,-0.43 h -0.54 l -2.22,-0.49 -0.81,-0.28 -1.92,-0.44 -0.55,-0.27 -0.34,-0.08 h -0.28 l -3.45,-0.84 -1.63,-0.28 -3.11,-0.83 -0.81,-0.27 -0.64,-0.18 -0.81,-0.28 -2.41,-0.7 h -0.54 l -0.6,-0.18 -1.64,-0.81 -2.12,-0.71 -2.43,-0.81 -0.44,-0.17 -1.08,-0.28 -1.99,-0.78 -0.54,-0.26 -0.21,-0.08 -3.52,-1.63 -1.36,-0.63 -2.98,-1.36 -0.68,-0.36 -4.61,-2.71 -0.71,-0.44 -2.98,-1.9 -0.61,-0.43 -3.56,-2.53 -3.21,-2.9 -0.46,-0.42 -1.44,-1.33 -3.44,-3.81 -0.36,-0.41 -6.27,-7.02 -3.49,-6.52 -0.23,-0.44 -1.96,-3.7 -2.38,-7.14 -0.13,-0.37 -1.08,-2.72 -0.06,-0.19 -4.12,-14.46 2.24,-14.8 0.07,-0.46 0.9,-5.95 1.8,-5.44 1.49,-4.48 h 0.26 c 8.1,-24.48 30.76,-92.75 49.36,-125.83 h 0.27 c 5.81,-10.31 24.82,-36.78 50.89,-71.93 18.98,-25.6 54.22,-72.5 90.72,-121.07 l 8.99,-11.96 c 65.98,-87.74 133.38,-176.2 149.1,-197.33 -0.68,-152.74 -16.66,-325.87 -31.85,-490.28 -6.8,-73.64 -13.49,-145.88 -17.22,-193.4 l -0.21,-2.54 -0.34,-4.4 v -0.27 l -0.16,-1.99 -0.27,-3.59 h -0.05 l -0.12,-1.49 v -0.54 l -0.26,-3.51 h -0.03 l -0.09,-1.04 -0.25,-3.08 h -0.01 l -0.05,-0.66 v -0.27 l -0.23,-2.79 v -0.38 h -0.02 l -0.17,-2.13 v -0.18 h -0.01 l -0.07,-0.86 h -0.05 l -0.04,-0.47 -0.83,-9.59 2.18,-10.47 129.62,-619.97 -50.28,-1013.6 -0.32,-6.52 0.59,-4.85 117.43,-973.37 c -30.69,-124.5 -59.8,-230.27 -93.01,-336.85 -34.59,-110.98 -72.63,-219.85 -120.51,-348.65 l -3.64,-9.81 -0.69,-9.42 -38.96,-535.78 -12.7,-61.61 -124.14,-320.96 -10.29,-26.64 11.64,-26.21 90.81,-204.4 17.87,-40.21 43.92,-0.97 161.21,-3.58 18.04,-0.4 15.3,7.97 219.65,114.47 324.67,-201.32 18.16,-11.26 21.13,0.97 551.73,25.08 16.81,0.77 14.35,8.17 227.24,129.41 236.77,-107.32 29.31,-13.3 28.95,13.84 157.61,75.22 41.39,19.74 -2.1,45.84 c -0.01,0.57 -10.45,212.76 -10.45,222.72 0,22.45 -36.29,84.51 -75.6,145.26 -14.97,23.15 -30.57,46.88 -44.16,67.45 l 4.79,3.64 79.75,60.7 5.06,3.85 4.15,4.56 269.9,296.02 18,19.72 249.58,129.34 15.93,8.24 10.08,15.34 22.42,34.08 274.3,416.88 669.05,244.52 10.99,4.01 8.79,7.1 967.23,780.4 16.18,13.04 6.31,19.76 426.57,1333.03 3.9,12.16 -0.65,12.49 -31.36,602.1 -0.43,8.29 -2.28,7.7 -134.59,455.51 122.77,680.81 1.81,9.97 z"
     id="path2242"
     inkscape:connector-curvature="0"
     style="fill:#294688;fill-rule:nonzero" /><polygon
     class="fil1"
     points="3502.59,15815.18 4402.35,15458.6 6184.31,15458.6 7084.35,15815.18 8285.24,16757.29 5293.34,19969.4 2301.44,16757.29 "
     id="polygon2244"
     style="fill:#294688" /><g
     id="_1965113095104">
   <path
   class="fil60"
   d="m 8589.11,15789.46 c 4.62,35.15 6.79,57.52 5.57,61.05 -8.03,22.62 17.65,735.19 17.65,735.19 l -439.68,-38.47 v -696.72 l -185.23,-662.18 c 0,0 597.03,566.8 601.69,601.13 z"
   id="path2246"
   inkscape:connector-curvature="0"
   style="fill:#b1adba;fill-rule:nonzero" />
   <path
   class="fil61"
   d="m 8589.11,15789.46 c -4.66,-34.33 -601.69,-601.13 -601.69,-601.13 l 482.04,-152.05 c 0,0 94.81,563.38 119.65,753.18 z"
   id="path2248"
   inkscape:connector-curvature="0"
   style="fill:#c9c4d0;fill-rule:nonzero" />
   <polygon
   class="fil62"
   points="7693.77,16633.55 7759.69,16446.71 7837.9,16376.18 8172.65,16798.43 "
   id="polygon2250"
   style="fill:#7b8492;fill-rule:nonzero" />
   <polygon
   class="fil63"
   points="7444.02,15132.23 7521.53,14840.84 7987.42,15188.33 7572.94,15149.38 7570.86,15149.09 "
   id="polygon2252"
   style="fill:#6e707c;fill-rule:nonzero" />
   <polygon
   class="fil64"
   points="8172.65,15850.51 8172.65,16547.23 7837.9,16376.18 7987.42,15188.33 "
   id="polygon2254"
   style="fill:#8f8e99;fill-rule:nonzero" />
   <polygon
   class="fil65"
   points="8880.82,16523.65 8683.78,16798.43 8172.65,16798.43 8612.33,16585.7 "
   id="polygon2256"
   style="fill:#717681;fill-rule:nonzero" />
   <polygon
   class="fil64"
   points="8612.33,16585.7 8172.65,16798.43 7837.9,16376.18 8172.65,16547.23 "
   id="polygon2258"
   style="fill:#8f8e99;fill-rule:nonzero" />
   <polygon
   class="fil63"
   points="7987.42,15188.33 7802.5,15464.72 7570.86,15149.09 7572.94,15149.38 "
   id="polygon2260"
   style="fill:#6e707c;fill-rule:nonzero" />
   <polygon
   class="fil66"
   points="8967.08,15709.32 8880.82,16523.65 8612.33,16585.7 "
   id="polygon2262"
   style="fill:#686f79;fill-rule:nonzero" />
   <polygon
   class="fil63"
   points="7837.9,16376.18 7818.64,16034.98 7802.5,15464.72 7987.42,15188.33 "
   id="polygon2264"
   style="fill:#6e707c;fill-rule:nonzero" />
   <path
   class="fil65"
   d="m 8594.68,15850.51 c 1.22,-3.53 -0.95,-25.9 -5.57,-61.05 l 377.97,-80.14 -354.75,876.38 c 0,0 -25.68,-712.57 -17.65,-735.19 z"
   id="path2266"
   inkscape:connector-curvature="0"
   style="fill:#717681;fill-rule:nonzero" />
   <path
   class="fil66"
   d="m 8469.46,15036.28 371.91,-24.04 125.71,697.08 -377.97,80.14 c -24.84,-189.8 -119.65,-753.18 -119.65,-753.18 z"
   id="path2268"
   inkscape:connector-curvature="0"
   style="fill:#686f79;fill-rule:nonzero" />
   <path
   class="fil67"
   d="m 8612.33,16585.7 -439.68,-38.47 v -696.72 l -185.23,-662.18 c 0,0 597.03,566.8 601.69,601.13 v 0 c 3.78,28.7 5.91,48.88 5.91,57.23 0,1.88 -0.12,3.17 -0.34,3.82 -1.1,3.06 -1.56,18.74 -1.56,43.57 v 0 c 0,158.77 19.21,691.62 19.21,691.62 z"
   id="path2270"
   inkscape:connector-curvature="0"
   style="fill:#d3d2dd;fill-rule:nonzero" />
   <path
   class="fil68"
   d="m 8589.11,15789.46 c -4.66,-34.33 -601.69,-601.13 -601.69,-601.13 l 482.04,-152.05 c 0,0 94.81,563.38 119.65,753.18 z"
   id="path2272"
   inkscape:connector-curvature="0"
   style="fill:#e4e3ea;fill-rule:nonzero" />
   <polygon
   class="fil69"
   points="8172.65,16798.43 7693.77,16633.55 7759.69,16446.71 7837.9,16376.18 "
   id="polygon2274"
   style="fill:#a1adbd;fill-rule:nonzero" />
   <polygon
   class="fil70"
   points="7521.53,14840.84 7987.42,15188.33 7572.94,15149.38 7570.86,15149.09 7444.02,15132.23 "
   id="polygon2276"
   style="fill:#939aaa;fill-rule:nonzero" />
   <polygon
   class="fil71"
   points="8172.65,16547.23 7837.9,16376.18 7987.42,15188.33 8172.65,15850.51 "
   id="polygon2278"
   style="fill:#b4b7c3;fill-rule:nonzero" />
   <polygon
   class="fil72"
   points="8880.82,16523.65 8816.86,16612.86 8683.78,16798.43 8172.65,16798.43 8612.33,16585.7 "
   id="polygon2280"
   style="fill:#99a1af;fill-rule:nonzero" />
   <polygon
   class="fil71"
   points="8172.65,16547.23 8612.33,16585.7 8172.65,16798.43 7837.9,16376.18 "
   id="polygon2282"
   style="fill:#b4b7c3;fill-rule:nonzero" />
   <polygon
   class="fil70"
   points="7802.5,15464.72 7570.86,15149.09 7572.94,15149.38 7987.42,15188.33 "
   id="polygon2284"
   style="fill:#939aaa;fill-rule:nonzero" />
   <polygon
   class="fil73"
   points="8612.33,16585.7 8967.08,15709.32 8912.34,16226.14 8880.82,16523.65 "
   id="polygon2286"
   style="fill:#8e9aa8;fill-rule:nonzero" />
   <polygon
   class="fil70"
   points="7987.42,15188.33 7837.9,16376.18 7832.88,16287.39 7818.64,16034.98 7815.18,15912.68 7802.5,15464.72 "
   id="polygon2288"
   style="fill:#939aaa;fill-rule:nonzero" />
   <path
   class="fil72"
   d="m 8612.33,16585.7 v 0 c 0,0 -19.21,-532.85 -19.21,-691.62 0,-24.83 0.46,-40.51 1.56,-43.57 0.22,-0.65 0.34,-1.94 0.34,-3.82 v 0 c 0,-8.35 -2.13,-28.53 -5.91,-57.23 l 377.97,-80.14 z"
   id="path2290"
   inkscape:connector-curvature="0"
   style="fill:#99a1af;fill-rule:nonzero" />
   <path
   class="fil73"
   d="m 8589.11,15789.46 v 0 c -24.84,-189.8 -119.65,-753.18 -119.65,-753.18 l 371.91,-24.04 125.71,697.08 z"
   id="path2292"
   inkscape:connector-curvature="0"
   style="fill:#8e9aa8;fill-rule:nonzero" />
   <path
   class="fil66"
   d="m 6366.36,14862 10.88,416.94 -121.02,119.99 v 97.13 l 41.02,127.54 c 0,0 201.35,131.95 267.29,160.41 l -7.58,5.45 7.58,-5.45 c 5.23,2.26 9.66,3.94 13.04,4.79 45.71,11.43 638.31,-130.91 638.31,-130.91 l -270.12,593.09 -465.26,36.23 -29.94,-566.69 29.94,566.69 -2.91,0.23 -221.37,-168.55 v -168.5 l -160.9,-499.12 v -0.91 l 270.83,-588.45 z"
   id="path2294"
   inkscape:connector-curvature="0"
   style="fill:#686f79;fill-rule:nonzero" />
   <path
   class="fil73"
   d="m 7355.83,16287.44 -407.85,-36.62 -2.22,0.16 270.12,-593.09 v 0 l 89.85,-124.76 v 0 c 0.02,0.09 67.55,311.81 84.69,334.63 z"
   id="path2296"
   inkscape:connector-curvature="0"
   style="fill:#8e9aa8;fill-rule:nonzero" />
   <polygon
   class="fil71"
   points="6477.59,16287.44 6480.55,16288.32 6480.82,16293.82 6480.55,16288.32 6480.82,16293.82 6480.55,16288.32 7065.21,16463.3 6450.56,16463.3 6287.01,16399.21 6095.32,16324.08 "
   id="polygon2298"
   style="fill:#b4b7c3;fill-rule:nonzero" />
   <polygon
   class="fil72"
   points="6943.36,16256.26 6945.76,16250.98 6943.36,16256.26 6945.76,16250.98 6947.98,16250.82 7355.83,16287.44 7065.21,16463.3 6480.55,16288.32 6480.5,16287.21 6945.76,16250.98 "
   id="polygon2300"
   style="fill:#99a1af;fill-rule:nonzero" />
   <polygon
   class="fil69"
   points="6477.59,16287.44 6095.32,16324.08 6095.32,16177.52 6256.22,15950.39 6256.22,16118.89 "
   id="polygon2302"
   style="fill:#a1adbd;fill-rule:nonzero" />
   <g
   id="g2318">
    <polygon
   class="fil74"
   points="8175.01,16757.76 5289.73,19855.4 6732.5,17329.38 "
   id="polygon2304"
   style="fill:url(#id5)" />
    <polygon
   class="fil75"
   points="8175.01,16757.76 6732.5,17329.38 6166.9,16218.27 7044.33,15870.72 "
   id="polygon2306"
   style="fill:url(#id2)" />
    <polygon
   class="fil76"
   points="7044.33,15870.72 6166.9,16218.27 4412.56,16218.27 3535.39,15870.72 4412.56,15523.11 6166.9,15523.11 "
   id="polygon2308"
   style="fill:url(#id3)" />
    <polygon
   class="fil77"
   points="5289.73,19855.4 2404.45,16757.76 3847.22,17329.38 "
   id="polygon2310"
   style="fill:url(#id6)" />
    <polygon
   class="fil78"
   points="4412.56,16218.27 3847.22,17329.38 2404.45,16757.76 3535.39,15870.72 "
   id="polygon2312"
   style="fill:url(#id4)" />
    <polygon
   class="fil79"
   points="6732.5,17329.38 5289.73,19855.4 3847.22,17329.38 "
   id="polygon2314"
   style="fill:url(#id0)" />
    <polygon
   class="fil80"
   points="6732.5,17329.38 3847.22,17329.38 4412.56,16218.27 6166.9,16218.27 "
   id="polygon2316"
   style="fill:url(#id1)" />
   </g>
   <polygon
   class="fil81"
   points="6366.36,13385.57 5633.61,12843.08 5843.34,11704.72 6450.56,13095.94 "
   id="polygon2320"
   style="fill:#f1edf4;fill-rule:nonzero" />
   <polygon
   class="fil82"
   points="6655.87,13170.63 6450.56,13095.94 5843.34,11704.72 7132.72,12073.74 "
   id="polygon2322"
   style="fill:#cbcbda;fill-rule:nonzero" />
   <path
   class="fil81"
   d="m 6655.87,13170.63 c 0,0 170.36,1365.17 170.64,1392.67 l -324.53,43.93 -135.62,-1221.66 84.2,-289.63 z"
   id="path2324"
   inkscape:connector-curvature="0"
   style="fill:#f1edf4;fill-rule:nonzero" />
   <path
   class="fil83"
   d="m 7132.72,12073.74 -152.6,1247.52 341.46,1401.95 -495.07,-159.91 c -0.28,-27.5 -170.64,-1392.67 -170.64,-1392.67 z"
   id="path2326"
   inkscape:connector-curvature="0"
   style="fill:#8f8f9d;fill-rule:nonzero" />
   <polygon
   class="fil60"
   points="5843.34,11704.72 6815.21,11704.72 7132.72,12073.74 "
   id="polygon2328"
   style="fill:#b1adba;fill-rule:nonzero" />
   <polygon
   class="fil61"
   points="7132.72,12073.74 6815.21,11704.72 7572.94,11985.81 7314.89,12976.57 "
   id="polygon2330"
   style="fill:#c9c4d0;fill-rule:nonzero" />
   <path
   class="fil84"
   d="m 5633.61,11350.06 363.6,-124.2 -363.6,124.2 37.05,-424.91 333.88,-148.31 c 0,0 7.18,417.82 0,428.59 -6.97,10.48 -143.5,465.3 -160.17,497.6 l -1.03,1.69 -273.86,-232.88 z"
   id="path2332"
   inkscape:connector-curvature="0"
   style="fill:#a0a1af;fill-rule:nonzero" />
   <path
   class="fil85"
   d="m 6004.54,10776.84 228.17,296.68 -388.34,629.51 c 16.67,-32.3 153.2,-487.12 160.17,-497.6 7.18,-10.77 0,-428.59 0,-428.59 z"
   id="path2334"
   inkscape:connector-curvature="0"
   style="fill:#b8b6c5;fill-rule:nonzero" />
   <path
   class="fil83"
   d="m 5521.74,11658.13 27.85,-186.29 h 19.89 l 273.86,232.88 c -10.76,10.73 -209.73,226.13 -209.73,226.13 z"
   id="path2336"
   inkscape:connector-curvature="0"
   style="fill:#8f8f9d;fill-rule:nonzero" />
   <polygon
   class="fil86"
   points="7314.89,12976.57 7572.94,11985.81 8414.49,12947.54 7321.58,13796.17 "
   id="polygon2338"
   style="fill:#dbd9e3;fill-rule:nonzero" />
   <polygon
   class="fil65"
   points="7314.89,12976.57 6980.12,13321.26 7132.72,12073.74 "
   id="polygon2340"
   style="fill:#717681;fill-rule:nonzero" />
   <path
   class="fil82"
   d="m 5366.85,12449.87 v -409.11 l 266.76,-109.91 c 0,0 198.97,-215.4 209.73,-226.13 l -209.73,1138.36 z"
   id="path2342"
   inkscape:connector-curvature="0"
   style="fill:#cbcbda;fill-rule:nonzero" />
   <polygon
   class="fil83"
   points="5040.11,13134.4 5366.85,12449.87 5194.37,13170.63 5319.89,13836.8 5105.53,14621.1 "
   id="polygon2344"
   style="fill:#8f8f9d;fill-rule:nonzero" />
   <polygon
   class="fil60"
   points="5633.61,12843.08 5633.61,13125.05 5194.37,13170.63 5366.85,12449.87 "
   id="polygon2346"
   style="fill:#b1adba;fill-rule:nonzero" />
   <polygon
   class="fil82"
   points="6366.36,13385.57 6501.98,14607.23 6377.24,15278.94 6366.36,14862 6366.33,14861.52 6369.95,14853.67 6366.33,14861.52 6357.96,14541.3 6183.23,13909.51 5807.21,13624.3 5633.61,13125.05 5633.61,12843.08 "
   id="polygon2348"
   style="fill:#cbcbda;fill-rule:nonzero" />
   <polygon
   class="fil60"
   points="5105.53,14621.1 4853.27,15654.43 4226.77,15623.6 4710.4,14497.33 "
   id="polygon2350"
   style="fill:#b1adba;fill-rule:nonzero" />
   <polygon
   class="fil86"
   points="6826.51,14563.3 6377.24,15278.94 6501.98,14607.23 "
   id="polygon2352"
   style="fill:#dbd9e3;fill-rule:nonzero" />
   <path
   class="fil87"
   d="m 8414.49,12947.54 c 15.14,30.96 136.6,1165.08 136.6,1165.08 l -1229.51,-316.45 z"
   id="path2354"
   inkscape:connector-curvature="0"
   style="fill:#bebdcc;fill-rule:nonzero" />
   <polygon
   class="fil87"
   points="4846.46,13240.74 5040.11,13134.4 5105.53,14621.1 4710.4,14497.33 "
   id="polygon2356"
   style="fill:#bebdcc;fill-rule:nonzero" />
   <polygon
   class="fil84"
   points="5569.48,11471.84 5409.86,11471.84 5449.26,11389.44 5567.5,11321.37 5614.06,11145.84 5543.31,10708.63 5670.66,10925.15 5633.61,11350.06 "
   id="polygon2358"
   style="fill:#a0a1af;fill-rule:nonzero" />
   <polygon
   class="fil65"
   points="7321.58,14723.21 6980.12,13321.26 7314.89,12976.57 7321.58,13796.17 7521.53,14840.84 "
   id="polygon2360"
   style="fill:#717681;fill-rule:nonzero" />
   <polygon
   class="fil88"
   points="8551.09,14112.62 7987.42,15188.33 7521.53,14840.84 7321.58,13796.17 "
   id="polygon2362"
   style="fill:#c9c8d3;fill-rule:nonzero" />
   <path
   class="fil65"
   d="m 7355.83,15463.63 -50.1,69.5 -89.85,124.76 c 0,0 -592.6,142.34 -638.31,130.91 -3.38,-0.85 -7.81,-2.53 -13.04,-4.79 l 349.64,-250.88 z"
   id="path2364"
   inkscape:connector-curvature="0"
   style="fill:#717681;fill-rule:nonzero" />
   <path
   class="fil82"
   d="m 6564.53,15784.01 c -65.94,-28.46 -267.29,-160.41 -267.29,-160.41 l 80,-344.66 536.93,254.19 z"
   id="path2366"
   inkscape:connector-curvature="0"
   style="fill:#cbcbda;fill-rule:nonzero" />
   <path
   class="fil65"
   d="m 7321.58,14723.21 199.95,117.63 -77.51,291.39 -88.19,331.4 -441.66,69.5 c 13.1,-0.78 407.41,-809.92 407.41,-809.92 z"
   id="path2368"
   inkscape:connector-curvature="0"
   style="fill:#717681;fill-rule:nonzero" />
   <path
   class="fil83"
   d="m 7321.58,14723.21 c 0,0 -394.31,809.14 -407.41,809.92 l -536.93,-254.19 449.27,-715.64 z"
   id="path2370"
   inkscape:connector-curvature="0"
   style="fill:#8f8f9d;fill-rule:nonzero" />
   <polygon
   class="fil89"
   points="6477.59,16287.44 6480.5,16287.21 6480.55,16288.32 "
   id="polygon2372"
   style="fill:#95c12b;fill-rule:nonzero" />
   <polygon
   class="fil89"
   points="5843.34,11704.72 5844.37,11703.03 "
   id="polygon2374"
   style="fill:#95c12b;fill-rule:nonzero" />
   <polygon
   class="fil83"
   points="5633.61,11930.85 5366.85,12040.76 5521.74,11658.13 "
   id="polygon2376"
   style="fill:#8f8f9d;fill-rule:nonzero" />
   <polygon
   class="fil88"
   points="4710.4,14497.33 4500.51,14244.55 4589.49,13095.94 4846.46,13240.74 "
   id="polygon2378"
   style="fill:#c9c8d3;fill-rule:nonzero" />
   <polygon
   class="fil83"
   points="6256.22,15496.06 6256.22,15398.93 6377.24,15278.94 6297.24,15623.6 "
   id="polygon2380"
   style="fill:#8f8f9d;fill-rule:nonzero" />
   <polygon
   class="fil65"
   points="5524.49,11059.87 5614.06,11145.84 5567.5,11321.37 5449.26,11389.44 5409.86,11471.84 5366.85,11471.84 5366.85,11378.71 5248.66,11321.37 5191.36,11167.34 5280.89,11063.45 "
   id="polygon2382"
   style="fill:#717681;fill-rule:nonzero" />
   <polygon
   class="fil89"
   points="4295.68,11563.17 4295.68,11563.19 "
   id="polygon2384"
   style="fill:#95c12b;fill-rule:nonzero" />
   <polygon
   class="fil89"
   points="6366.15,14861.91 6366.33,14861.52 6366.36,14862 "
   id="polygon2386"
   style="fill:#95c12b;fill-rule:nonzero" />
   <polygon
   class="fil84"
   points="5030.11,10612.06 5052.21,10688.15 4872.5,10708.8 4768.59,10604.89 4944.13,10522.51 "
   id="polygon2388"
   style="fill:#a0a1af;fill-rule:nonzero" />
   <line
   class="fil89"
   x1="5052.21"
   y1="10688.15"
   x2="5052.21"
   y2="10688.15"
   id="line2390"
   style="fill:#95c12b;fill-rule:nonzero" />
   <polygon
   class="fil90"
   points="5052.21,10688.15 5030.11,10612.06 4944.13,10522.51 5610.48,10522.51 5535.25,10658.63 5543.31,10708.63 5614.06,11145.84 5524.49,11059.87 5280.89,11063.45 5191.36,11167.34 "
   id="polygon2392"
   style="fill:#dedce7;fill-rule:nonzero" />
   <polygon
   class="fil81"
   points="5248.66,11321.37 5366.85,11378.71 5366.85,11471.84 5119.7,11471.84 4979.96,11353.63 4933.4,10912.99 5052.21,10688.15 5191.36,11167.34 "
   id="polygon2394"
   style="fill:#f1edf4;fill-rule:nonzero" />
   <path
   class="fil84"
   d="m 5610.48,10522.51 125.8,17.9 c 0,0 -47,111.07 -50.58,128.97 -3.59,17.92 -142.3,39.25 -142.39,39.25 l -8.06,-50 z"
   id="path2396"
   inkscape:connector-curvature="0"
   style="fill:#a0a1af;fill-rule:nonzero" />
   <polygon
   class="fil87"
   points="4846.46,13240.74 4589.49,13095.94 4622.46,11930.85 5105.53,12194.65 "
   id="polygon2398"
   style="fill:#bebdcc;fill-rule:nonzero" />
   <polygon
   class="fil83"
   points="5521.74,11658.13 5366.85,12040.76 5366.85,12449.87 5105.53,12194.65 5194.37,12013.29 5173.44,11704.72 5463.81,11704.72 "
   id="polygon2400"
   style="fill:#8f8f9d;fill-rule:nonzero" />
   <polygon
   class="fil91"
   points="5366.85,12449.87 5040.11,13134.4 4846.46,13240.74 5105.53,12194.65 "
   id="polygon2402"
   style="fill:#9b9ba9;fill-rule:nonzero" />
   <polygon
   class="fil83"
   points="5173.44,11704.72 5194.37,12013.29 5105.53,12194.65 4622.46,11930.85 5083.85,11604.4 "
   id="polygon2404"
   style="fill:#8f8f9d;fill-rule:nonzero" />
   <polygon
   class="fil64"
   points="5521.74,11658.13 5463.81,11704.72 5173.44,11704.72 5083.85,11604.4 4979.96,11353.63 5119.7,11471.84 5177.02,11572.16 5366.85,11672.47 5495.86,11586.5 5549.59,11471.84 "
   id="polygon2406"
   style="fill:#8f8e99;fill-rule:nonzero" />
   <polygon
   class="fil65"
   points="5495.86,11586.5 5366.85,11672.47 5177.02,11572.16 5119.7,11471.84 5549.59,11471.84 "
   id="polygon2408"
   style="fill:#717681;fill-rule:nonzero" />
   <polygon
   class="fil83"
   points="4853.27,15654.43 4485.59,15893.26 4226.77,15623.6 "
   id="polygon2410"
   style="fill:#8f8f9d;fill-rule:nonzero" />
   <path
   class="fil66"
   d="m 7355.83,15463.63 88.19,-331.4 126.84,16.86 -126.84,360.23 -53.6,358.44 c -17.14,-22.82 -84.67,-334.54 -84.69,-334.63 z"
   id="path2412"
   inkscape:connector-curvature="0"
   style="fill:#686f79;fill-rule:nonzero" />
   <polygon
   class="fil65"
   points="5007.54,15417.91 4933.24,15749.29 4664.72,15863.56 4521.85,15897.86 4485.59,15893.26 4853.27,15654.43 "
   id="polygon2414"
   style="fill:#717681;fill-rule:nonzero" />
   <polygon
   class="fil83"
   points="4853.27,15654.43 5105.53,14621.1 5319.89,13836.8 5264.78,14723.21 5007.54,15417.91 "
   id="polygon2416"
   style="fill:#8f8f9d;fill-rule:nonzero" />
   <path
   class="fil87"
   d="m 4485.59,15893.26 -277.97,-35.4 c 0,0 -337.1,-28.57 -331.4,-45.71 l 350.55,-188.55 z"
   id="path2418"
   inkscape:connector-curvature="0"
   style="fill:#bebdcc;fill-rule:nonzero" />
   <path
   class="fil83"
   d="m 4058.63,15508.61 168.14,114.99 -350.55,188.55 c 5.71,-17.13 28.55,-87.73 45.69,-118.14 7.74,-13.72 70.09,-96.77 136.72,-185.4 z"
   id="path2420"
   inkscape:connector-curvature="0"
   style="fill:#8f8f9d;fill-rule:nonzero" />
   <path
   class="fil91"
   d="m 5194.37,13170.63 439.24,-45.58 173.6,499.25 376.02,285.21 174.73,631.79 8.37,320.22 -0.18,0.39 c -18.1,-5.46 -131.77,-68.12 -243.16,-130.67 l 0.71,-8.03 -0.71,8.03 c -116.18,-65.24 -229.88,-130.38 -229.88,-130.38 l -314.87,-419.72 4.68,-9.59 -4.68,9.59 -258.35,-344.34 z"
   id="path2422"
   inkscape:connector-curvature="0"
   style="fill:#9b9ba9;fill-rule:nonzero" />
   <path
   class="fil66"
   d="m 6095.32,15450.36 v -414.08 l 27.67,-305.04 c 111.39,62.55 225.06,125.21 243.16,130.67 z"
   id="path2424"
   inkscape:connector-curvature="0"
   style="fill:#686f79;fill-rule:nonzero" />
   <polygon
   class="fil65"
   points="5578.24,14181.14 5498.93,14343.76 5319.89,13836.8 "
   id="polygon2426"
   style="fill:#717681;fill-rule:nonzero" />
   <path
   class="fil88"
   d="m 4710.4,14497.33 -483.63,1126.27 -168.14,-114.99 c 81.15,-107.92 168.69,-224.13 171.83,-233.54 l 270.05,-1030.52 z"
   id="path2428"
   inkscape:connector-curvature="0"
   style="fill:#c9c8d3;fill-rule:nonzero" />
   <polygon
   class="fil65"
   points="5319.89,13836.8 5498.93,14343.76 5447.47,14816.97 5264.78,14723.21 "
   id="polygon2430"
   style="fill:#717681;fill-rule:nonzero" />
   <polygon
   class="fil65"
   points="5447.47,14816.97 5007.54,15417.91 5264.78,14723.21 "
   id="polygon2432"
   style="fill:#717681;fill-rule:nonzero" />
   <polygon
   class="fil85"
   points="4933.4,10912.99 4979.96,11353.63 4295.68,11563.17 4274.22,11475.43 4159.58,11196 "
   id="polygon2434"
   style="fill:#b8b6c5;fill-rule:nonzero" />
   <polygon
   class="fil65"
   points="4117.29,10614.69 3979.17,10257.6 4069.99,10053.2 4231.21,10049.61 4485.59,10182.17 4295.68,10382.77 "
   id="polygon2436"
   style="fill:#717681;fill-rule:nonzero" />
   <polygon
   class="fil89"
   points="4117.4,10615.93 4116.58,10615.63 4117.29,10614.69 "
   id="polygon2438"
   style="fill:#95c12b;fill-rule:nonzero" />
   <polygon
   class="fil90"
   points="5052.21,10688.15 4933.4,10912.99 4117.4,10615.93 4117.29,10614.69 4295.68,10382.77 4485.59,10182.17 4792.82,10304.13 4944.13,10522.51 4768.59,10604.89 4872.5,10708.8 "
   id="polygon2440"
   style="fill:#dedce7;fill-rule:nonzero" />
   <polygon
   class="fil92"
   points="5610.48,10522.51 4944.13,10522.51 4792.82,10304.13 4485.59,10182.17 4843.81,9960.05 5395.54,9985.13 5653.44,10132.01 5670.66,10392.07 "
   id="polygon2442"
   style="fill:#ebebf0;fill-rule:nonzero" />
   <polygon
   class="fil82"
   points="4159.58,11196 4117.4,10615.93 4933.4,10912.99 "
   id="polygon2444"
   style="fill:#cbcbda;fill-rule:nonzero" />
   <polygon
   class="fil84"
   points="4979.96,11353.63 5083.85,11604.4 4622.46,11930.85 4295.68,11563.19 4295.68,11563.17 "
   id="polygon2446"
   style="fill:#a0a1af;fill-rule:nonzero" />
   <polygon
   class="fil81"
   points="4500.51,14244.55 4310.46,13909.51 4259.74,12887.11 4589.49,13095.94 "
   id="polygon2448"
   style="fill:#f1edf4;fill-rule:nonzero" />
   <path
   class="fil61"
   d="m 4230.46,15275.07 c 5.72,-17.15 -51.42,-737.05 -51.42,-737.05 l 131.42,-628.51 190.05,335.04 z"
   id="path2450"
   inkscape:connector-curvature="0"
   style="fill:#c9c4d0;fill-rule:nonzero" />
   <polygon
   class="fil83"
   points="4378.6,11901.81 4295.68,11563.19 4622.46,11930.85 "
   id="polygon2452"
   style="fill:#8f8f9d;fill-rule:nonzero" />
   <polygon
   class="fil61"
   points="4589.49,13095.94 4259.74,12887.11 4378.6,11901.81 4622.46,11930.85 "
   id="polygon2454"
   style="fill:#c9c4d0;fill-rule:nonzero" />
   <path
   class="fil65"
   d="m 5653.44,10132.01 268.71,-121.81 157.62,75.23 c 0,0 -10.73,211.36 -10.73,225.7 0,14.32 -146.89,232.86 -146.89,232.86 l -107.46,-197.04 z"
   id="path2456"
   inkscape:connector-curvature="0"
   style="fill:#717681;fill-rule:nonzero" />
   <polygon
   class="fil65"
   points="8585.31,12606.16 9024.97,13980.07 8414.49,12947.54 "
   id="polygon2458"
   style="fill:#717681;fill-rule:nonzero" />
   <path
   class="fil91"
   d="m 8414.49,12947.54 610.48,1032.53 -473.88,132.55 c 0,0 -121.46,-1134.12 -136.6,-1165.08 z"
   id="path2460"
   inkscape:connector-curvature="0"
   style="fill:#9b9ba9;fill-rule:nonzero" />
   <polygon
   class="fil63"
   points="9024.97,13980.07 8980.53,14541.3 8551.09,14112.62 "
   id="polygon2462"
   style="fill:#6e707c;fill-rule:nonzero" />
   <polygon
   class="fil83"
   points="8469.46,15036.28 7987.42,15188.33 8551.09,14112.62 8980.53,14541.3 8841.37,15012.24 "
   id="polygon2464"
   style="fill:#8f8f9d;fill-rule:nonzero" />
   <polygon
   class="fil85"
   points="5670.66,10925.15 5922.15,10543.99 6004.54,10776.84 "
   id="polygon2466"
   style="fill:#b8b6c5;fill-rule:nonzero" />
   <polygon
   class="fil60"
   points="6004.54,10776.84 5922.15,10543.99 6057.98,10647.38 6354.16,10972.34 6614.53,11097.66 6232.71,11073.52 "
   id="polygon2468"
   style="fill:#b1adba;fill-rule:nonzero" />
   <path
   class="fil93"
   d="m 5543.31,10708.63 c 0.09,0 138.8,-21.33 142.39,-39.25 3.58,-17.9 50.58,-128.97 50.58,-128.97 l -125.8,-17.9 60.18,-130.44 -17.22,-260.06 161.25,214.94 107.46,197.04 -251.49,381.16 z"
   id="path2470"
   inkscape:connector-curvature="0"
   style="fill:#cfccda;fill-rule:nonzero" />
   <polygon
   class="fil61"
   points="6815.21,11704.72 5843.34,11704.72 5844.37,11703.03 6232.71,11073.52 6614.53,11097.66 "
   id="polygon2472"
   style="fill:#c9c4d0;fill-rule:nonzero" />
   <polygon
   class="fil91"
   points="7572.94,11985.81 7618.09,11825.77 8585.31,12606.16 8414.49,12947.54 "
   id="polygon2474"
   style="fill:#9b9ba9;fill-rule:nonzero" />
   <polygon
   class="fil61"
   points="7572.94,11985.81 6815.21,11704.72 6614.53,11097.66 6927.57,11573.4 7618.09,11825.77 "
   id="polygon2476"
   style="fill:#c9c4d0;fill-rule:nonzero" />
   <polygon
   class="fil94"
   points="6450.56,13095.94 6366.36,13385.57 5633.61,12843.08 5843.34,11704.72 "
   id="polygon2478"
   style="fill:#faf9fa;fill-rule:nonzero" />
   <polygon
   class="fil95"
   points="6655.87,13170.63 6450.56,13095.94 5843.34,11704.72 7132.72,12073.74 "
   id="polygon2480"
   style="fill:#e7e8ef;fill-rule:nonzero" />
   <path
   class="fil94"
   d="m 6501.98,14607.23 -135.62,-1221.66 84.2,-289.63 205.31,74.69 v 0 c 0,0 170.36,1365.17 170.64,1392.67 z"
   id="path2482"
   inkscape:connector-curvature="0"
   style="fill:#faf9fa;fill-rule:nonzero" />
   <path
   class="fil96"
   d="m 7321.58,14723.21 -495.07,-159.91 v 0 c -0.28,-27.5 -170.64,-1392.67 -170.64,-1392.67 l 476.85,-1096.89 -152.6,1247.52 z"
   id="path2484"
   inkscape:connector-curvature="0"
   style="fill:#b6b8c6;fill-rule:nonzero" />
   <polygon
   class="fil67"
   points="7132.72,12073.74 5843.34,11704.72 6815.21,11704.72 "
   id="polygon2486"
   style="fill:#d3d2dd;fill-rule:nonzero" />
   <polygon
   class="fil68"
   points="7314.89,12976.57 7132.72,12073.74 6815.21,11704.72 7572.94,11985.81 "
   id="polygon2488"
   style="fill:#e4e3ea;fill-rule:nonzero" />
   <path
   class="fil97"
   d="m 5843.34,11704.72 v 0 l -273.86,-232.88 64.13,-121.78 37.05,-424.91 333.88,-148.31 c 0,0 3.19,185.88 3.19,312.88 0,63.39 -0.79,112.13 -3.19,115.71 -0.81,1.22 -3.39,8.49 -7.33,20.43 v 0 0 0 c -29.87,90.41 -138.11,448.63 -152.84,477.17 z"
   id="path2490"
   inkscape:connector-curvature="0"
   style="fill:#c4c6d3;fill-rule:nonzero" />
   <path
   class="fil98"
   d="m 5844.37,11703.03 c 14.73,-28.54 122.97,-386.76 152.84,-477.17 v 0 c 3.94,-11.94 6.52,-19.21 7.33,-20.43 2.4,-3.58 3.19,-52.32 3.19,-115.71 v 0 c 0,63.39 -0.79,112.13 -3.19,115.71 -0.81,1.22 -3.39,8.49 -7.33,20.43 v 0 0 0 c -29.87,90.41 -138.11,448.63 -152.84,477.17 z"
   id="path2492"
   inkscape:connector-curvature="0"
   style="fill:#d3d4e0;fill-rule:nonzero" />
   <polygon
   class="fil99"
   points="5844.37,11703.03 5843.34,11704.72 "
   id="polygon2494"
   style="fill:#c1dba0;fill-rule:nonzero" />
   <path
   class="fil100"
   d="m 5844.37,11703.03 c 14.73,-28.54 122.97,-386.76 152.84,-477.17 v 0 c 3.94,-11.94 6.52,-19.21 7.33,-20.43 2.4,-3.58 3.19,-52.32 3.19,-115.71 v 0 c 0,-127 -3.19,-312.88 -3.19,-312.88 l 228.17,296.68 z"
   id="path2496"
   inkscape:connector-curvature="0"
   style="fill:#d8d9e4;fill-rule:nonzero" />
   <path
   class="fil96"
   d="m 5633.61,11930.85 -111.87,-272.72 27.85,-186.29 h 19.89 l 273.86,232.88 c -10.76,10.73 -209.73,226.13 -209.73,226.13 z"
   id="path2498"
   inkscape:connector-curvature="0"
   style="fill:#b6b8c6;fill-rule:nonzero" />
   <polygon
   class="fil101"
   points="7321.58,13796.17 7314.89,12976.57 7572.94,11985.81 8414.49,12947.54 "
   id="polygon2500"
   style="fill:#eff0f5;fill-rule:nonzero" />
   <polygon
   class="fil72"
   points="6980.12,13321.26 7132.72,12073.74 7314.89,12976.57 "
   id="polygon2502"
   style="fill:#99a1af;fill-rule:nonzero" />
   <path
   class="fil95"
   d="m 5633.61,12843.08 -266.76,-393.21 v -409.11 l 266.76,-109.91 c 0,0 198.97,-215.4 209.73,-226.13 z"
   id="path2504"
   inkscape:connector-curvature="0"
   style="fill:#e7e8ef;fill-rule:nonzero" />
   <polygon
   class="fil96"
   points="5319.89,13836.8 5105.53,14621.1 5040.11,13134.4 5366.85,12449.87 5194.37,13170.63 "
   id="polygon2506"
   style="fill:#b6b8c6;fill-rule:nonzero" />
   <polygon
   class="fil67"
   points="5194.37,13170.63 5366.85,12449.87 5633.61,12843.08 5633.61,13125.05 "
   id="polygon2508"
   style="fill:#d3d2dd;fill-rule:nonzero" />
   <polygon
   class="fil95"
   points="6183.23,13909.51 5807.21,13624.3 5633.61,13125.05 5633.61,12843.08 6366.36,13385.57 6501.98,14607.23 6377.24,15278.94 6366.36,14862 6366.33,14861.52 6357.96,14541.3 "
   id="polygon2510"
   style="fill:#e7e8ef;fill-rule:nonzero" />
   <polygon
   class="fil67"
   points="4853.27,15654.43 4226.77,15623.6 4710.4,14497.33 5105.53,14621.1 "
   id="polygon2512"
   style="fill:#d3d2dd;fill-rule:nonzero" />
   <polygon
   class="fil101"
   points="6377.24,15278.94 6501.98,14607.23 6826.51,14563.3 "
   id="polygon2514"
   style="fill:#eff0f5;fill-rule:nonzero" />
   <path
   class="fil102"
   d="m 8551.09,14112.62 -1229.51,-316.45 1092.91,-848.63 c 15.14,30.96 136.6,1165.08 136.6,1165.08 z"
   id="path2516"
   inkscape:connector-curvature="0"
   style="fill:#dedfe9;fill-rule:nonzero" />
   <polygon
   class="fil102"
   points="5105.53,14621.1 4710.4,14497.33 4846.46,13240.74 5040.11,13134.4 "
   id="polygon2518"
   style="fill:#dedfe9;fill-rule:nonzero" />
   <polygon
   class="fil97"
   points="5569.48,11471.84 5409.86,11471.84 5449.26,11389.44 5567.5,11321.37 5614.06,11145.84 5543.31,10708.63 5670.66,10925.15 5633.61,11350.06 "
   id="polygon2520"
   style="fill:#c4c6d3;fill-rule:nonzero" />
   <polygon
   class="fil72"
   points="7321.58,13796.17 7521.53,14840.84 7321.58,14723.21 6980.12,13321.26 7314.89,12976.57 "
   id="polygon2522"
   style="fill:#99a1af;fill-rule:nonzero" />
   <polygon
   class="fil103"
   points="8551.09,14112.62 7987.42,15188.33 7521.53,14840.84 7321.58,13796.17 "
   id="polygon2524"
   style="fill:#e4e5eb;fill-rule:nonzero" />
   <path
   class="fil72"
   d="m 6585.24,15789.46 h -0.02 c -3.21,0 -5.73,-0.22 -7.49,-0.63 v 0 c -0.05,0 -0.1,-0.01 -0.16,-0.03 v 0 c -3.38,-0.85 -7.81,-2.53 -13.04,-4.79 l 349.64,-250.88 c 0.02,0 0.03,0 0.07,-0.01 l 441.59,-69.49 -50.1,69.5 -89.85,124.76 c 0,0 -0.02,0 -0.05,0 -5.31,1.28 -548.11,131.57 -630.59,131.57 z"
   id="path2526"
   inkscape:connector-curvature="0"
   style="fill:#99a1af;fill-rule:nonzero" />
   <path
   class="fil95"
   d="m 6448.96,15974.83 c -65.93,-28.46 -323.73,-163.1 -323.73,-163.1 l 252.01,-532.79 536.93,254.19 z"
   id="path2528"
   inkscape:connector-curvature="0"
   style="fill:#e7e8ef;fill-rule:nonzero" />
   <path
   class="fil72"
   d="m 6914.24,15533.12 c 14.34,-3.43 407.34,-809.91 407.34,-809.91 v 0 l 199.95,117.63 -77.51,291.39 -88.19,331.4 z"
   id="path2530"
   inkscape:connector-curvature="0"
   style="fill:#99a1af;fill-rule:nonzero" />
   <path
   class="fil96"
   d="m 6914.17,15533.13 v 0 l -536.93,-254.19 449.27,-715.64 495.07,159.91 c 0,0 -393,806.48 -407.34,809.91 -0.04,0.01 -0.05,0.01 -0.07,0.01 z"
   id="path2532"
   inkscape:connector-curvature="0"
   style="fill:#b6b8c6;fill-rule:nonzero" />
   <polygon
   class="fil104"
   points="6480.55,16288.32 6477.59,16287.44 6480.5,16287.21 "
   id="polygon2534"
   style="fill:#c1d113;fill-rule:nonzero" />
   <line
   class="fil105"
   x1="5843.3398"
   y1="11704.72"
   x2="5843.3398"
   y2="11704.72"
   id="line2536"
   style="fill:#f6f8f9;fill-rule:nonzero" />
   <line
   class="fil106"
   x1="5843.3398"
   y1="11704.72"
   x2="5843.3398"
   y2="11704.72"
   id="line2538"
   style="fill:#dfe8e8;fill-rule:nonzero" />
   <line
   class="fil107"
   x1="5843.3398"
   y1="11704.72"
   x2="5843.3398"
   y2="11704.72"
   id="line2540"
   style="fill:#cdd8ce;fill-rule:nonzero" />
   <polygon
   class="fil108"
   points="5844.37,11703.03 5843.34,11704.72 "
   id="polygon2542"
   style="fill:#dde3df;fill-rule:nonzero" />
   <polygon
   class="fil96"
   points="5366.85,12040.76 5521.74,11658.13 5633.61,11930.85 "
   id="polygon2544"
   style="fill:#b6b8c6;fill-rule:nonzero" />
   <polygon
   class="fil103"
   points="4846.46,13240.74 4710.4,14497.33 4500.51,14244.55 4589.49,13095.94 "
   id="polygon2546"
   style="fill:#e4e5eb;fill-rule:nonzero" />
   <polygon
   class="fil96"
   points="6122.54,15822.48 6097.65,15463.43 6377.24,15278.94 "
   id="polygon2548"
   style="fill:#b6b8c6;fill-rule:nonzero" />
   <polygon
   class="fil109"
   points="5191.36,11167.34 5280.89,11063.45 5524.49,11059.87 5614.06,11145.84 5567.5,11321.37 5449.26,11389.44 5409.86,11471.84 5366.85,11471.84 5366.85,11378.71 5248.66,11321.37 "
   id="polygon2550"
   style="fill:#4e565a;fill-rule:nonzero" />
   <polygon
   class="fil110"
   points="4295.68,11563.19 4295.68,11563.17 "
   id="polygon2552"
   style="fill:#c2d0c5;fill-rule:nonzero" />
   <polygon
   class="fil104"
   points="6366.36,14862 6366.15,14861.91 6366.33,14861.52 "
   id="polygon2554"
   style="fill:#c1d113;fill-rule:nonzero" />
   <polygon
   class="fil109"
   points="5052.21,10688.15 4872.5,10708.8 4768.59,10604.89 4944.13,10522.51 5030.11,10612.06 "
   id="polygon2556"
   style="fill:#4e565a;fill-rule:nonzero" />
   <polygon
   class="fil111"
   points="5030.11,10612.06 4944.13,10522.51 5610.48,10522.51 5535.25,10658.63 5543.31,10708.63 5614.06,11145.84 5524.49,11059.87 5280.89,11063.45 5191.36,11167.34 5052.21,10688.15 "
   id="polygon2558"
   style="fill:#f1f1f5;fill-rule:nonzero" />
   <polygon
   class="fil94"
   points="5366.85,11471.84 5119.7,11471.84 4979.96,11353.63 4933.4,10912.99 5052.21,10688.15 5191.36,11167.34 5248.66,11321.37 5366.85,11378.71 "
   id="polygon2560"
   style="fill:#faf9fa;fill-rule:nonzero" />
   <path
   class="fil109"
   d="m 5543.31,10708.63 -8.06,-50 75.23,-136.12 125.8,17.9 c 0,0 -47,111.07 -50.58,128.97 -3.59,17.92 -142.3,39.25 -142.39,39.25 z"
   id="path2562"
   inkscape:connector-curvature="0"
   style="fill:#4e565a;fill-rule:nonzero" />
   <polygon
   class="fil102"
   points="5105.53,12194.65 4846.46,13240.74 4589.49,13095.94 4622.46,11930.85 "
   id="polygon2564"
   style="fill:#dedfe9;fill-rule:nonzero" />
   <polygon
   class="fil96"
   points="5194.37,12013.29 5173.44,11704.72 5463.81,11704.72 5521.74,11658.13 5366.85,12040.76 5366.85,12449.87 5105.53,12194.65 "
   id="polygon2566"
   style="fill:#b6b8c6;fill-rule:nonzero" />
   <polygon
   class="fil112"
   points="4846.46,13240.74 5105.53,12194.65 5366.85,12449.87 5040.11,13134.4 "
   id="polygon2568"
   style="fill:#c0c3d0;fill-rule:nonzero" />
   <polygon
   class="fil96"
   points="5173.44,11704.72 5194.37,12013.29 5105.53,12194.65 4622.46,11930.85 5083.85,11604.4 "
   id="polygon2570"
   style="fill:#b6b8c6;fill-rule:nonzero" />
   <polygon
   class="fil71"
   points="5119.7,11471.84 5177.02,11572.16 5366.85,11672.47 5495.86,11586.5 5549.59,11471.84 5521.74,11658.13 5463.81,11704.72 5173.44,11704.72 5083.85,11604.4 4979.96,11353.63 "
   id="polygon2572"
   style="fill:#b4b7c3;fill-rule:nonzero" />
   <polygon
   class="fil109"
   points="5495.86,11586.5 5366.85,11672.47 5177.02,11572.16 5119.7,11471.84 5549.59,11471.84 "
   id="polygon2574"
   style="fill:#4e565a;fill-rule:nonzero" />
   <polygon
   class="fil96"
   points="4485.59,15893.26 4226.77,15623.6 4853.27,15654.43 "
   id="polygon2576"
   style="fill:#b6b8c6;fill-rule:nonzero" />
   <path
   class="fil73"
   d="m 7390.42,15867.76 v 0 c -17.14,-22.82 -84.67,-334.54 -84.69,-334.63 l 50.1,-69.5 88.19,-331.4 126.84,16.86 -126.84,360.23 -16.84,112.63 -15.71,105.05 z"
   id="path2578"
   inkscape:connector-curvature="0"
   style="fill:#8e9aa8;fill-rule:nonzero" />
   <polygon
   class="fil72"
   points="4521.85,15897.86 4485.59,15893.26 4853.27,15654.43 5007.54,15417.91 4933.24,15749.29 4664.72,15863.56 "
   id="polygon2580"
   style="fill:#99a1af;fill-rule:nonzero" />
   <polygon
   class="fil96"
   points="5007.54,15417.91 4853.27,15654.43 5105.53,14621.1 5319.89,13836.8 5264.78,14723.21 "
   id="polygon2582"
   style="fill:#b6b8c6;fill-rule:nonzero" />
   <path
   class="fil102"
   d="m 4485.59,15893.26 -277.97,-35.4 c 0,0 -331.21,-28.07 -331.48,-45.27 0,-0.14 0.02,-0.3 0.08,-0.44 v 0 l 350.55,-188.55 z"
   id="path2584"
   inkscape:connector-curvature="0"
   style="fill:#dedfe9;fill-rule:nonzero" />
   <path
   class="fil96"
   d="m 3876.22,15812.15 c 5.71,-17.13 28.55,-87.73 45.69,-118.14 7.74,-13.72 70.09,-96.77 136.72,-185.4 v 0 l 168.14,114.99 z"
   id="path2586"
   inkscape:connector-curvature="0"
   style="fill:#b6b8c6;fill-rule:nonzero" />
   <path
   class="fil112"
   d="m 6366.15,14861.91 v 0 c -18.1,-5.46 -131.77,-68.12 -243.16,-130.67 v 0 c -116.18,-65.24 -229.88,-130.38 -229.88,-130.38 l -314.87,-419.72 -258.35,-344.34 -125.52,-666.17 439.24,-45.58 173.6,499.25 376.02,285.21 174.73,631.79 8.37,320.22 z"
   id="path2588"
   inkscape:connector-curvature="0"
   style="fill:#c0c3d0;fill-rule:nonzero" />
   <path
   class="fil73"
   d="m 6095.32,15450.36 v -414.08 l 27.67,-305.04 c 111.39,62.55 225.06,125.21 243.16,130.67 z"
   id="path2590"
   inkscape:connector-curvature="0"
   style="fill:#8e9aa8;fill-rule:nonzero" />
   <polygon
   class="fil72"
   points="5498.93,14343.76 5319.89,13836.8 5578.24,14181.14 "
   id="polygon2592"
   style="fill:#99a1af;fill-rule:nonzero" />
   <path
   class="fil103"
   d="m 4226.77,15623.6 v 0 l -168.14,-114.99 c 81.15,-107.92 168.69,-224.13 171.83,-233.54 v 0 c 0.02,-0.09 0.05,-0.2 0.07,-0.32 l 269.98,-1030.2 209.89,252.78 z"
   id="path2594"
   inkscape:connector-curvature="0"
   style="fill:#e4e5eb;fill-rule:nonzero" />
   <polygon
   class="fil72"
   points="5447.47,14816.97 5264.78,14723.21 5319.89,13836.8 5498.93,14343.76 "
   id="polygon2596"
   style="fill:#99a1af;fill-rule:nonzero" />
   <polygon
   class="fil72"
   points="5258.67,15074.84 5007.54,15417.91 5264.78,14723.21 5447.47,14816.97 5271.91,15056.76 "
   id="polygon2598"
   style="fill:#99a1af;fill-rule:nonzero" />
   <line
   class="fil113"
   x1="4295.6802"
   y1="11563.17"
   x2="4295.6802"
   y2="11563.17"
   id="line2600"
   style="fill:#c9dfac;fill-rule:nonzero" />
   <polygon
   class="fil100"
   points="4933.4,10912.99 4979.96,11353.63 4295.68,11563.17 4274.22,11475.43 4159.58,11196 "
   id="polygon2602"
   style="fill:#d8d9e4;fill-rule:nonzero" />
   <polygon
   class="fil72"
   points="4117.29,10614.69 3979.17,10257.6 4069.99,10053.2 4231.21,10049.61 4485.59,10182.17 4295.68,10382.77 "
   id="polygon2604"
   style="fill:#99a1af;fill-rule:nonzero" />
   <polygon
   class="fil104"
   points="4117.4,10615.93 4116.58,10615.63 4117.29,10614.69 "
   id="polygon2606"
   style="fill:#c1d113;fill-rule:nonzero" />
   <polygon
   class="fil111"
   points="4117.29,10614.69 4295.68,10382.77 4485.59,10182.17 4792.82,10304.13 4944.13,10522.51 4768.59,10604.89 4872.5,10708.8 5052.21,10688.15 4933.4,10912.99 4117.4,10615.93 "
   id="polygon2608"
   style="fill:#f1f1f5;fill-rule:nonzero" />
   <polygon
   class="fil114"
   points="5610.48,10522.51 4944.13,10522.51 4792.82,10304.13 4485.59,10182.17 4843.81,9960.05 5395.54,9985.13 5653.44,10132.01 5670.66,10392.07 "
   id="polygon2610"
   style="fill:#f8f8fa;fill-rule:nonzero" />
   <polygon
   class="fil95"
   points="4159.58,11196 4117.4,10615.93 4933.4,10912.99 "
   id="polygon2612"
   style="fill:#e7e8ef;fill-rule:nonzero" />
   <polygon
   class="fil97"
   points="4979.96,11353.63 5083.85,11604.4 4622.46,11930.85 4295.68,11563.19 4295.68,11563.17 "
   id="polygon2614"
   style="fill:#c4c6d3;fill-rule:nonzero" />
   <polygon
   class="fil115"
   points="4589.49,13095.94 4500.51,14244.55 4310.46,13909.51 4259.74,12887.11 "
   id="polygon2616"
   style="fill:#ddeaf3;fill-rule:nonzero" />
   <path
   class="fil68"
   d="m 4230.46,15275.07 0.07,-0.32 c -0.02,0.12 -0.05,0.23 -0.07,0.32 z"
   id="path2618"
   inkscape:connector-curvature="0"
   style="fill:#e4e3ea;fill-rule:nonzero" />
   <path
   class="fil68"
   d="m 4230.53,15274.75 c 0.22,-1.02 0.32,-3.34 0.32,-6.81 -0.01,-77.26 -51.81,-729.92 -51.81,-729.92 l 131.42,-628.51 190.05,335.04 z"
   id="path2620"
   inkscape:connector-curvature="0"
   style="fill:#e4e3ea;fill-rule:nonzero" />
   <polygon
   class="fil96"
   points="4622.46,11930.85 4378.6,11901.81 4295.68,11563.19 "
   id="polygon2622"
   style="fill:#b6b8c6;fill-rule:nonzero" />
   <polygon
   class="fil68"
   points="4622.46,11930.85 4589.49,13095.94 4259.74,12887.11 4378.6,11901.81 "
   id="polygon2624"
   style="fill:#e4e3ea;fill-rule:nonzero" />
   <path
   class="fil72"
   d="m 5922.15,10543.99 -107.46,-197.04 -161.25,-214.94 268.71,-121.81 157.62,75.23 c 0,0 -10.73,211.36 -10.73,225.7 0,14.32 -146.89,232.86 -146.89,232.86 z"
   id="path2626"
   inkscape:connector-curvature="0"
   style="fill:#99a1af;fill-rule:nonzero" />
   <polygon
   class="fil72"
   points="9024.97,13980.07 8414.49,12947.54 8585.31,12606.16 "
   id="polygon2628"
   style="fill:#99a1af;fill-rule:nonzero" />
   <path
   class="fil112"
   d="m 8551.09,14112.62 v 0 c 0,0 -121.46,-1134.12 -136.6,-1165.08 v 0 l 610.48,1032.53 z"
   id="path2630"
   inkscape:connector-curvature="0"
   style="fill:#c0c3d0;fill-rule:nonzero" />
   <polygon
   class="fil70"
   points="8980.53,14541.3 8551.09,14112.62 9024.97,13980.07 "
   id="polygon2632"
   style="fill:#939aaa;fill-rule:nonzero" />
   <polygon
   class="fil96"
   points="8469.46,15036.28 7987.42,15188.33 8551.09,14112.62 8980.53,14541.3 8841.37,15012.24 "
   id="polygon2634"
   style="fill:#b6b8c6;fill-rule:nonzero" />
   <polygon
   class="fil100"
   points="5670.66,10925.15 5922.15,10543.99 6004.54,10776.84 "
   id="polygon2636"
   style="fill:#d8d9e4;fill-rule:nonzero" />
   <polygon
   class="fil67"
   points="6614.53,11097.66 6232.71,11073.52 6004.54,10776.84 5922.15,10543.99 6057.98,10647.38 6354.16,10972.34 "
   id="polygon2638"
   style="fill:#d3d2dd;fill-rule:nonzero" />
   <path
   class="fil116"
   d="m 5670.66,10925.15 v 0 l -127.35,-216.52 c 0.09,0 138.8,-21.33 142.39,-39.25 3.58,-17.9 50.58,-128.97 50.58,-128.97 v 0 l -125.8,-17.9 60.18,-130.44 -17.22,-260.06 161.25,214.94 107.46,197.04 z"
   id="path2640"
   inkscape:connector-curvature="0"
   style="fill:#e8e8ef;fill-rule:nonzero" />
   <polygon
   class="fil68"
   points="6614.53,11097.66 6815.21,11704.72 5843.34,11704.72 5844.37,11703.03 6232.71,11073.52 "
   id="polygon2642"
   style="fill:#e4e3ea;fill-rule:nonzero" />
   <polygon
   class="fil112"
   points="8585.31,12606.16 8414.49,12947.54 7572.94,11985.81 7618.09,11825.77 "
   id="polygon2644"
   style="fill:#c0c3d0;fill-rule:nonzero" />
   <polygon
   class="fil68"
   points="6927.57,11573.4 7618.09,11825.77 7572.94,11985.81 6815.21,11704.72 6614.53,11097.66 "
   id="polygon2646"
   style="fill:#e4e3ea;fill-rule:nonzero" />
  </g><path
     class="fil1"
     d="m 11504.01,13984.16 h 249.27 V 12633.5 h 771.95 v 3439.55 h -771.95 v -1340.1 h -249.27 v 1340.1 h -771.95 V 12633.5 h 771.95 z m 3629.72,1308.67 h 249.31 v -2659.14 h 771.93 v 2659.14 h 251.62 v 1168.9 h -771.93 v -388.5 H 14361.8 v -3439.54 h 771.93 z m -1747.02,-2657.18 h 118.23 c 467.97,0 850.23,382.26 850.23,850.23 v 1772.79 c 0,467.99 -382.24,850.26 -850.23,850.26 h -118.23 c -468.01,0 -850.25,-382.26 -850.25,-850.26 v -1772.79 c 0,-467.99 382.26,-850.23 850.25,-850.23 z m 38.38,759.35 c -33.71,0 -61.91,28.2 -61.91,61.91 v 1830.72 c 0,33.71 28.2,61.89 61.91,61.89 h 41.47 c 33.71,0 61.91,-28.18 61.91,-61.89 v -1830.72 c 0,-33.71 -28.2,-61.91 -61.91,-61.91 z m -748.95,3786.37 926.99,-0.02 c 463.7,-0.02 842.13,378.97 842.13,842.58 v 230.86 c 0,190.83 -64.85,373 -180.25,519.7 145.86,176.15 223,404.84 223,635.25 v 263.89 c 0,475.03 -342.25,938.06 -842.11,938.06 h -969.76 v 0.21 h -1611.31 v -545.8 c -117.74,327.59 -431.97,563.17 -799.04,563.17 h -117.92 c -313.14,0 -587.78,-171.42 -734.83,-425.15 H 7957.68 l -290.85,-1281.27 290.64,-1288.76 h 1431.2 c 139.55,-278.35 427.83,-470.35 759.2,-470.35 h 117.92 c 367.07,0 681.3,235.59 799.04,563.2 v -545.78 h 1611.31 z m -24.02,787.29 h -774.06 v 525.64 h 652.17 v 787.52 h -652.17 v 542.54 h 774.06 z m -1587.29,548.98 h -775.99 v -534.22 c 0,-33.41 -27.91,-61.35 -61.33,-61.35 h -41.37 c -33.39,0 -61.29,27.97 -61.29,61.35 v 1826.16 c 0,33.36 27.92,61.35 61.29,61.35 h 41.37 c 33.4,0 61.33,-27.96 61.33,-61.35 v -672.15 h 775.99 z m -1765.53,-211.56 -141.36,606.62 141.36,613.91 z m 4166.05,-387.66 v 497.76 h 160 c 32.79,0 60.1,-27.48 60.1,-60.25 v -377.2 c 0,-32.76 -27.29,-60.31 -60.1,-60.31 z m 0,1283.39 v 681.35 h 202.78 c 40.17,0 60.09,-62.63 60.09,-93.99 v -499.93 c 0,-40.38 -34.42,-87.43 -76.81,-87.43 z m 4332.4,-1567.72 h 1383.36 l 290.68,1288.76 -290.89,1281.27 h -1497.59 l 297.36,-1291.42 -117.55,-504.44 v 236.59 c 0,418.71 -341.94,760.64 -760.65,760.64 h -215.88 v 1206.2 h -756.6 v -3430.34 h 972.48 c 309.26,0 576.62,186.51 695.28,452.74 z m -911.16,272.22 v 774.28 h 88.95 c 54.48,0 99.71,-45.21 99.71,-99.68 v -574.96 c 0,-54.47 -45.25,-99.64 -99.71,-99.64 z m -1576.27,1918.05 h 798.06 v 787.54 h -1611.29 v -3430.74 h 1611.29 v 787.5 h -798.06 v 525.64 h 652.19 v 787.52 h -652.19 z"
     id="path2649"
     inkscape:connector-curvature="0"
     style="fill:#294688" /><g
     id="_1965113094864">
   <g
   id="g2657">
    <polygon
   class="fil2"
   points="10906.99,12808.43 11329.09,12808.43 11329.09,14159.09 11928.21,14159.09 11928.21,12808.43 12350.31,12808.43 12350.31,15898.11 11928.21,15898.11 11928.21,14558.01 11329.09,14558.01 11329.09,15898.11 10906.99,15898.11 "
   id="polygon2651"
   style="fill:#fefefe" />
    <polygon
   class="fil2"
   points="16231.65,15467.76 16231.65,15577.29 16231.65,15898.29 16231.65,16286.8 15809.58,16286.8 15809.58,15898.29 15557.97,15898.29 14958.8,15898.29 14621.12,15898.29 14536.72,15898.29 14536.72,12808.61 14958.8,12808.61 14958.8,15467.76 15557.97,15467.76 15557.97,12808.61 15980.04,12808.61 15980.04,15467.76 "
   id="polygon2653"
   style="fill:#fefefe" />
    <path
   class="fil2"
   d="m 13386.7,12810.59 h 118.24 c 371.41,0 675.3,303.85 675.3,675.29 v 1772.78 c 0,371.49 -303.89,675.35 -675.3,675.35 h -118.24 c -371.43,0 -675.32,-303.86 -675.32,-675.35 v -1772.78 c 0,-371.44 303.89,-675.29 675.32,-675.29 z m 38.38,409.48 h 41.48 c 130.27,0 236.84,106.57 236.84,236.84 v 1830.72 c 0,130.27 -106.57,236.82 -236.84,236.82 h -41.48 c -130.26,0 -236.84,-106.55 -236.84,-236.82 v -1830.72 c 0,-130.27 106.58,-236.84 236.84,-236.84 z"
   id="path2655"
   inkscape:connector-curvature="0"
   style="fill:#fefefe" />
   </g>
   <path
   class="fil2"
   d="m 16304.92,17356.28 h 61.79 344.95 390.82 c 322.18,0 585.71,263.55 585.71,585.71 v 702.85 c 0,322.17 -263.53,585.72 -585.71,585.72 h -390.82 v 1206.19 h -406.74 z m 2736.32,2672.91 251.19,-1106.46 -251.19,-1113.72 h -400.36 l 257.12,1103.44 -257.12,1116.74 z m -737.75,0 251.17,-1106.46 -251.17,-1113.72 h -400.4 l 257.14,1103.44 -257.14,1116.74 z m -10206.14,0 -251.17,-1106.46 251.17,-1113.72 h 400.38 l -257.12,1103.44 257.12,1116.74 z m 737.77,0 -251.2,-1106.46 251.2,-1113.72 h 400.41 l -257.15,1103.44 257.15,1116.74 z m 1312.74,-2690.53 h 117.94 c 370.53,0 673.67,303.12 673.67,673.66 v 330.39 h -475.7 v -359.29 c 0,-129.95 -106.27,-236.27 -236.25,-236.27 h -41.38 c -129.93,0 -236.22,106.32 -236.22,236.27 v 1826.16 c 0,129.91 106.29,236.28 236.22,236.28 h 41.38 c 129.98,0 236.25,-106.37 236.25,-236.28 v -497.21 h 475.7 v 468.34 c 0,370.57 -303.14,673.63 -673.67,673.63 h -117.94 c -370.54,0 -673.62,-303.06 -673.62,-673.63 v -1768.39 c 0,-370.54 303.08,-673.66 673.62,-673.66 z m 1555.28,2660.64 h 798.07 v 437.66 h -1261.45 v -0.46 -437.2 -2205.57 -437.63 h 463.38 798.07 v 437.63 h -798.07 v 875.5 h 652.16 v 437.65 h -652.16 z m 1123.92,-2643 h 71.63 v -0.02 h 704.44 c 366.95,0 667.2,300.39 667.2,667.65 v 230.86 c 0,210.77 -99.02,399.54 -252.71,522.11 177.9,137.45 295.47,370.18 295.47,632.84 v 263.89 c 0,419.68 -300.24,763.12 -667.19,763.12 h -355.47 -391.74 -71.63 z m 463.37,387.18 v 847.63 h 334.91 c 129.31,0 235.04,-105.81 235.04,-235.18 v -377.2 c 0,-129.39 -105.73,-235.25 -235.04,-235.25 z m 0,1283.39 v 1031.22 h 377.7 c 129.23,0 235.01,-121.01 235.01,-268.91 v -499.94 c 0,-147.82 -122.44,-262.37 -251.73,-262.37 z m 1844.96,972.43 h 798.07 v 437.66 h -1261.45 v -0.46 -437.2 -2205.57 -437.63 h 463.38 798.07 v 437.63 h -798.07 v 875.5 h 652.19 v 437.65 h -652.19 z m 1576.27,-2267.92 v 1124.13 h 263.89 c 151.05,0 274.63,-123.58 274.63,-274.61 v -574.94 c 0,-151.01 -123.58,-274.58 -274.63,-274.58 z"
   id="path2659"
   inkscape:connector-curvature="0"
   style="fill:#fefefe" />
  </g></g>
</svg>