<?xml version="1.0" encoding="UTF-8" standalone="no"?>
<!-- Creator: CorelDRAW X5 -->

<svg
   xmlns:dc="http://purl.org/dc/elements/1.1/"
   xmlns:cc="http://creativecommons.org/ns#"
   xmlns:rdf="http://www.w3.org/1999/02/22-rdf-syntax-ns#"
   xmlns:svg="http://www.w3.org/2000/svg"
   xmlns="http://www.w3.org/2000/svg"
   xmlns:sodipodi="http://sodipodi.sourceforge.net/DTD/sodipodi-0.dtd"
   xmlns:inkscape="http://www.inkscape.org/namespaces/inkscape"
   xml:space="preserve"
   width="67.5358mm"
   height="64.6992mm"
   style="shape-rendering:geometricPrecision; text-rendering:geometricPrecision; image-rendering:optimizeQuality; fill-rule:evenodd; clip-rule:evenodd"
   viewBox="0 0 2909 2787"
   version="1.1"
   id="svg126"
   sodipodi:docname="logo.svg"
   inkscape:export-filename="/home/abrikos/Documents/academy/НОЦ СЕВЕР логотип.png"
   inkscape:export-xdpi="96"
   inkscape:export-ydpi="96"
   inkscape:version="0.92.5 (2060ec1f9f, 2020-04-08)"><metadata
   id="metadata130"><rdf:RDF><cc:Work
       rdf:about=""><dc:format>image/svg+xml</dc:format><dc:type
         rdf:resource="http://purl.org/dc/dcmitype/StillImage" /></cc:Work></rdf:RDF></metadata>
    <sodipodi:namedview
   pagecolor="#ffffff"
   bordercolor="#666666"
   borderopacity="1"
   objecttolerance="10"
   gridtolerance="10"
   guidetolerance="10"
   inkscape:pageopacity="0"
   inkscape:pageshadow="2"
   inkscape:window-width="1848"
   inkscape:window-height="1016"
   id="namedview128"
   showgrid="false"
   inkscape:zoom="3.3485525"
   inkscape:cx="125.83762"
   inkscape:cy="122.3696"
   inkscape:window-x="1992"
   inkscape:window-y="27"
   inkscape:window-maximized="1"
   inkscape:current-layer="svg126" />
    <defs
   id="defs99">
  <style
   type="text/css"
   id="style97">
   <![CDATA[
    .fil2 {fill:#013DB9}
    .fil0 {fill:#FEFEFE;fill-rule:nonzero}
    .fil1 {fill:#013DB9;fill-rule:nonzero}
   ]]>
  </style>
 
  
        
 
   
            
  
    
       
       
       
       
       
       
       
       
   </defs>
    <circle
   style="fill:#ffffff;stroke:#005486;stroke-width:10.155756;stroke-opacity:1"
   id="path132"
   cx="1457.5813"
   cy="1398.0808"
   r="1295.0394"
   inkscape:export-xdpi="96.051414"
   inkscape:export-ydpi="96.051414" />
    <path
   style="fill:#fefefe;fill-rule:nonzero;stroke-width:0.76598841"
   inkscape:connector-curvature="0"
   id="path102"
   d="m 1821.3752,305.79307 c 26.0436,-15.31977 51.3212,-26.0436 59.7471,-27.57558 v 0 c 9.9578,-1.53198 19.9157,-1.53198 28.3416,4.59593 14.5537,11.48983 19.9157,30.63954 19.9157,44.42733 0,19.9157 6.1279,34.46948 16.8517,50.55523 11.4898,16.85175 16.8517,36.76745 -1.532,68.17297 l -11.4898,22.97966 c -90.3866,134.81396 -167.7515,358.48258 -191.4971,522.40411 -13.0218,88.08868 -10.7239,186.13518 8.4259,234.39248 12.2558,29.8735 34.4694,73.5349 64.343,104.9404 68.173,69.7049 130.984,88.0887 224.4346,97.2805 58.9811,6.1279 123.3241,9.9579 176.9433,25.2776 55.9172,16.0858 81.9608,31.4056 82.7268,58.2152 0.766,21.4476 -6.1279,37.5334 -18.3837,53.6192 -42.1294,55.1511 -137.112,61.279 -204.519,85.0247 -49.0232,17.6177 -101.1104,35.2354 -147.0697,46.7253 -49.0233,13.0218 -90.3867,13.7878 -130.2181,12.2558 -48.2572,-1.532 -94.2165,-15.3198 -148.6017,-26.8096 -29.1076,-6.1279 -42.8954,-10.7239 -58.9811,20.6817 -22.2137,43.6613 -32.9375,133.282 -33.7035,155.4956 -1.532,32.1715 -3.064,42.8954 -3.064,75.0669 h -202.2209 c -10.7239,-54.3852 -22.9797,-89.6207 -26.0436,-144.7718 -2.298,-42.8954 3.0639,-70.471 3.8299,-86.5567 0.766,-21.4477 -6.8939,-19.1497 -46.7253,1.532 -33.7035,16.0857 -77.3648,26.8096 -114.1323,30.6395 -32.9375,3.8299 -57.4491,1.532 -78.1308,6.1279 -18.3837,4.5959 -28.3416,15.3198 -31.4055,29.1076 -6.8939,26.0436 10.7238,55.1511 28.3416,75.0668 35.2354,39.8314 106.4724,75.0669 144.0058,90.3867 l -605.89686,-13.7878 -49.78925,9.9578 c 0,0 5.36192,-12.2558 -17.61773,-28.3416 -17.61773,-12.2558 -39.8314,-7.6598 -74.30088,-44.4273 -57.44913,-61.2791 -121.79216,-159.3256 -128.68605,-283.4157 -7.65989,-133.282 29.10756,-233.6265 123.32413,-330.141 98.04652,-100.3445 284.18171,-196.859 415.93172,-235.9244 97.28053,-28.34162 180.00732,-54.38523 257.37212,-84.25878 74.3009,-29.10756 122.5581,-56.68314 136.3459,-78.8968 72.0029,-115.66426 121.7922,-258.90409 214.4768,-361.54654 32.9375,-36.76745 62.0451,-67.40699 123.3241,-102.64245 37.5335,-21.44768 71.237,-44.42733 90.3867,-26.8096 12.2558,12.25582 88.8546,-39.8314 103.4084,-49.02326 z"
   class="fil0" /><path
   style="fill:#005486;fill-rule:nonzero;stroke-width:0.76598841;fill-opacity:1"
   inkscape:connector-curvature="0"
   id="path104"
   d="m 1821.3752,305.79307 c 26.0436,-15.31977 51.3212,-26.0436 59.7471,-27.57558 v 0 c 9.9578,-1.53198 19.9157,-1.53198 28.3416,4.59593 14.5537,11.48983 19.9157,30.63954 19.9157,44.42733 0,19.9157 6.1279,34.46948 16.8517,50.55523 11.4898,16.85175 16.8517,36.76745 -1.532,68.17297 l -11.4898,22.97966 c -90.3866,134.81396 -167.7515,358.48258 -191.4971,522.40411 -13.0218,88.08868 -10.7239,186.13518 8.4259,234.39248 12.2558,29.8735 34.4694,73.5349 64.343,104.9404 68.173,69.7049 130.984,88.0887 224.4346,97.2805 58.9811,6.1279 123.3241,9.9579 176.9433,25.2776 55.9172,16.0858 81.9608,31.4056 82.7268,58.2152 0.766,21.4476 -6.1279,37.5334 -18.3837,53.6192 -42.1294,55.1511 -137.112,61.279 -204.519,85.0247 -49.0232,17.6177 -101.1104,35.2354 -147.0697,46.7253 -49.0233,13.0218 -90.3867,13.7878 -130.2181,12.2558 -48.2572,-1.532 -94.2165,-15.3198 -148.6017,-26.8096 -29.1076,-6.1279 -42.8954,-10.7239 -58.9811,20.6817 -22.2137,43.6613 -32.9375,133.282 -33.7035,155.4956 -1.532,32.1715 -3.064,42.8954 -3.064,75.0669 h -202.2209 c -10.7239,-54.3852 -22.9797,-89.6207 -26.0436,-144.7718 -2.298,-42.8954 3.0639,-70.471 3.8299,-86.5567 0.766,-21.4477 -6.8939,-19.1497 -46.7253,1.532 -33.7035,16.0857 -77.3648,26.8096 -114.1323,30.6395 -32.9375,3.8299 -57.4491,1.532 -78.1308,6.1279 -18.3837,4.5959 -28.3416,15.3198 -31.4055,29.1076 -6.8939,26.0436 10.7238,55.1511 28.3416,75.0668 35.2354,39.8314 106.4724,75.0669 144.0058,90.3867 l -605.89686,-13.7878 -49.78925,9.9578 c 0,0 5.36192,-12.2558 -17.61773,-28.3416 -17.61773,-12.2558 -39.8314,-7.6598 -74.30088,-44.4273 -57.44913,-61.2791 -121.79216,-159.3256 -128.68605,-283.4157 -7.65989,-133.282 29.10756,-233.6265 123.32413,-330.141 98.04652,-100.3445 284.18171,-196.859 415.93172,-235.9244 97.28053,-28.34162 180.00732,-54.38523 257.37212,-84.25878 74.3009,-29.10756 122.5581,-56.68314 136.3459,-78.8968 72.0029,-115.66426 121.7922,-258.90409 214.4768,-361.54654 32.9375,-36.76745 62.0451,-67.40699 123.3241,-102.64245 37.5335,-21.44768 71.237,-44.42733 90.3867,-26.8096 12.2558,12.25582 88.8546,-39.8314 103.4084,-49.02326 z M 1385.5278,1562.7801 c 0,-15.3198 -3.064,-38.2994 -16.8518,-63.5771 -13.7878,-24.5116 -36.7674,-52.8532 -55.1511,-95.7485 -37.5335,-86.5567 -41.3634,-229.0305 -41.3634,-229.0305 23.7456,152.4316 85.0247,297.9695 211.4128,392.952 68.9389,51.3212 115.6642,72.0029 192.2631,91.1526 41.3634,9.9579 89.6206,18.3838 129.452,20.6817 21.4477,2.298 73.5349,-3.0639 117.1963,-13.7878 36.0014,-9.1918 72.7689,-20.6817 108.0043,-32.1715 19.9157,-6.1279 49.0233,-15.3197 80.4288,-23.7456 51.3212,-13.7878 108.7704,-29.1076 133.282,-46.7253 25.2776,-18.3837 42.8953,-47.4913 14.5538,-64.343 -58.9811,-34.4695 -170.8154,-33.7035 -265.798,-48.2573 -72.7689,-10.7239 -142.4739,-38.2994 -195.3271,-92.6846 -33.7035,-34.4695 -55.9171,-74.3009 -69.7049,-109.5364 -22.9797,-55.9171 -31.4055,-166.2194 -17.6177,-260.43603 19.9157,-138.6439 59.7471,-257.37211 116.4302,-372.27037 21.4477,-42.89535 45.1933,-86.55669 70.4709,-130.98402 15.3198,-27.57559 32.1716,-49.78925 34.4695,-72.7689 2.298,-19.9157 -8.4259,-39.06541 -23.7456,-49.02326 -9.9579,-6.12791 -19.1497,-9.19187 -21.4477,-12.25582 -7.6599,-10.72384 6.1279,-22.97965 3.8299,-32.17151 -0.7659,-5.36192 -12.2558,-15.31977 -49.0232,6.89389 -15.3198,9.19186 -32.1715,17.61774 -49.0233,27.57559 -38.2994,21.44767 -66.641,42.89535 -81.1948,32.17151 -19.9157,-14.55378 -84.2587,23.74564 -136.3459,73.53489 -96.5145,91.15262 -134.048,172.3474 -195.327,287.24566 -26.8096,50.55524 -45.9593,101.11047 -58.2152,120.26018 -23.7456,38.29943 -100.3444,66.641 -186.9011,97.28053 -96.5146,33.7035 -204.51895,67.40696 -255.07419,85.02476 -124.85611,46.7253 -288.01165,130.984 -373.80235,218.3067 -37.53343,38.2994 -71.23692,80.4287 -96.51454,151.6657 -60.51309,170.0494 14.55378,318.6512 87.32268,404.4419 10.72384,12.2558 31.40552,32.9375 49.02326,30.6395 47.49128,-6.1279 104.94041,-65.109 114.89826,-57.4491 -49.02326,59.7471 -79.66279,99.5785 9.95785,114.1322 h 354.65263 c -39.0654,-39.8314 -134.81395,-41.3633 -142.47383,-65.875 47.49128,7.6599 114.89826,16.8518 133.28203,-35.2354 17.6177,-49.0233 13.0218,-127.1541 -9.9579,-191.4971 -22.21366,-62.0451 -68.93895,-114.8983 -121.79216,-148.6018 -52.8532,-33.7035 -111.83431,-47.4913 -172.34739,-58.2151 4.59593,-3.064 91.91861,-12.2558 173.11338,31.4055 75.83286,41.3634 124.85607,125.6221 191.49707,179.2413 24.5117,19.1497 56.6832,36.7675 86.5567,41.3634 28.3416,4.5959 63.5771,5.3619 94.2166,0.766 42.8954,-7.6599 129.4521,-49.7893 129.4521,-101.1105 z m 90.3866,57.4491 c -82.7268,2.298 -98.8125,84.2587 -94.9826,170.0494 1.532,35.2355 6.1279,89.6207 12.2558,121.0262 l 121.7922,0.766 c 1.532,-65.109 8.4259,-120.2602 22.9797,-184.6032 8.4258,-36.0015 12.2558,-61.2791 -1.532,-80.4288 -9.9579,-13.7878 -29.1076,-26.8096 -60.5131,-26.0436 z"
   class="fil1" /><path
   style="fill:#005486;fill-rule:nonzero;stroke-width:0.76598841;fill-opacity:1"
   inkscape:connector-curvature="0"
   id="path106"
   d="m 1871.1644,444.43698 c 7.6599,-6.8939 16.8518,-14.55378 22.9797,-21.44768 15.3198,-16.08576 33.7035,-44.42733 33.7035,-44.42733 l 12.2558,16.08576 c 0,0 -19.9157,26.04361 -35.2355,42.89535 -12.2558,13.02181 -26.0436,25.27762 -36.0014,29.87355 -17.6178,8.42587 -25.2777,0.76599 2.2979,-22.21366 z"
   class="fil1" /><path
   style="fill:#005486;stroke-width:0.76598841;fill-opacity:1"
   inkscape:connector-curvature="0"
   id="path108"
   d="m 1704.179,446.73494 c -7.6599,10.72384 -29.1076,22.21367 -29.1076,22.21367 0,0 -3.83,-31.40553 5.3619,-42.12937 19.9157,-25.27761 31.4055,9.19187 24.5116,19.9157 z"
   class="fil2" /><path
   style="fill:#005486;stroke-width:0.76598841;fill-opacity:1"
   inkscape:connector-curvature="0"
   id="path110"
   d="m 1508.0859,570.82507 c -12.2558,9.19186 -26.0436,29.10756 -3.8299,42.89535 22.2136,13.0218 51.3212,13.78779 58.2151,13.0218 11.4898,-2.29796 -8.4259,-17.61773 -24.5116,-33.70349 -12.2559,-12.25581 -17.6178,-30.63953 -29.8736,-22.21366 z"
   class="fil2" /><rect
   style="fill:#005486;stroke-width:0.76598841;fill-opacity:1"
   x="339.18756"
   id="rect112"
   height="28.341572"
   width="1901.9492"
   y="1909.7728"
   class="fil2" /><polygon
   style="fill:#005486;fill-opacity:1"
   id="polygon114"
   points="2068,1081 2068,1311 1996,1311 1996,781 2068,781 2068,1013 2171,1013 2171,781 2243,781 2243,1311 2171,1311 2171,1081 "
   class="fil2"
   transform="matrix(0.76598843,0,0,0.76598843,339.18757,277.4515)" /><polygon
   style="fill:#005486;fill-opacity:1"
   id="polygon116"
   points="2909,1311 2909,1378 2836,1378 2836,1311 2793,1311 2691,1311 2633,1311 2618,1311 2618,781 2691,781 2691,1237 2793,1237 2793,781 2866,781 2866,1237 2909,1237 2909,1256 "
   class="fil2"
   transform="matrix(0.76598843,0,0,0.76598843,339.18757,277.4515)" /><path
   style="fill:#005486;stroke-width:0.76598841;fill-opacity:1"
   inkscape:connector-curvature="0"
   id="path118"
   d="m 2193.6456,876.45445 h 15.3197 c 49.0233,0 88.8547,39.8314 88.8547,88.85466 v 232.86049 c 0,49.0233 -39.8314,88.8547 -88.8547,88.8547 h -15.3197 c -49.0233,0 -88.8547,-39.8314 -88.8547,-88.8547 V 965.30911 c 0,-49.02326 39.8314,-88.85466 88.8547,-88.85466 z m 5.3619,53.61919 h 5.3619 c 16.8517,0 31.4055,13.78779 31.4055,31.40553 v 240.52033 c 0,16.8518 -13.7878,31.4056 -31.4055,31.4056 h -5.3619 c -16.8518,0 -31.4055,-13.7878 -31.4055,-31.4056 V 961.47917 c 0,-16.85175 13.7877,-31.40553 31.4055,-31.40553 z"
   class="fil2" /><path
   class="fil2"
   d="m 1852.0147,2011.6493 h 7.6599 44.4273 50.5553 c 41.3633,0 75.8328,33.7035 75.8328,75.8329 v 91.1526 c 0,41.3634 -33.7035,75.8328 -75.8328,75.8328 h -50.5553 v 155.4957 h -52.8532 v -397.548 z m 353.1207,345.4608 32.1715,-143.2398 -32.1715,-144.0059 h -52.0872 l 32.9375,142.4739 -32.9375,144.0058 h 52.0872 z m -94.9826,0 32.1715,-143.2398 -32.1715,-144.0059 h -52.0872 l 32.9375,142.4739 -32.9375,144.0058 h 52.0872 z m -1318.26607,0 -32.17151,-143.2398 32.17151,-144.0059 h 52.08722 l -32.93751,142.4739 32.93751,144.0058 h -52.08722 z m 94.98257,0 -32.17152,-143.2398 32.17152,-144.0059 h 52.08721 l -32.9375,142.4739 32.9375,144.0058 H 886.8693 Z m 169.2834,-347.7588 h 15.3198 c 47.4913,0 87.3227,39.0655 87.3227,87.3227 v 42.8954 h -61.2791 v -46.7253 c 0,-16.8518 -13.7878,-30.6396 -30.6395,-30.6396 h -5.3619 c -16.8518,0 -30.6396,13.7878 -30.6396,30.6396 v 235.9244 c 0,16.8518 13.7878,30.6396 30.6396,30.6396 h 5.3619 c 16.8517,0 30.6395,-13.7878 30.6395,-30.6396 v -64.343 h 61.2791 v 60.5131 c 0,47.4913 -39.0654,87.3227 -87.3227,87.3227 h -15.3198 c -47.4912,0 -87.32264,-39.0655 -87.32264,-87.3227 V 2096.674 c 0,-47.4913 39.06544,-87.3227 87.32264,-87.3227 z m 200.689,343.9288 h 103.4084 v 56.6832 h -163.1555 v 0 -56.6832 -284.9477 -56.6831 h 59.7471 103.4084 v 56.6831 h -103.4084 v 113.3663 h 84.2587 v 56.6832 h -84.2587 z m 145.5378,-341.6308 h 9.1919 v 0 h 91.1526 c 47.4913,0 86.5567,39.0654 86.5567,86.5567 v 29.8735 c 0,27.5756 -13.0218,51.3213 -32.9375,67.407 22.9796,17.6178 38.2994,47.4913 38.2994,81.9608 v 33.7035 c 0,54.3852 -39.0654,98.8125 -86.5567,98.8125 h -45.9593 -50.5552 -9.1919 v -397.548 z m 59.7471,49.7893 v 109.5363 h 42.8954 c 16.8517,0 30.6395,-13.7878 30.6395,-30.6395 v -49.0233 c 0,-16.8517 -13.7878,-30.6395 -30.6395,-30.6395 h -42.8954 z m 0,165.4535 v 133.2819 h 49.0233 c 16.8517,0 30.6395,-15.3197 30.6395,-34.4694 v -64.3431 c 0,-19.1497 -16.0858,-33.7035 -32.1715,-33.7035 h -46.7253 z m 238.2224,125.6221 h 103.4084 v 56.6831 h -163.1555 v 0 -56.6831 -284.9477 -56.6832 h 59.7471 103.4084 v 56.6832 H 1700.349 v 113.3662 h 84.2587 v 56.6832 h -84.2587 z m 203.7529,-292.6076 v 145.5378 h 33.7035 c 19.1497,0 35.2355,-16.0858 35.2355,-35.2355 v -74.3009 c 0,-19.1497 -16.0858,-35.2354 -35.2355,-35.2354 h -33.7035 z"
   id="path122"
   inkscape:connector-curvature="0"
   style="fill:#005486;stroke-width:0.76598841;fill-opacity:1" />
</svg>