<?xml version="1.0" encoding="UTF-8" standalone="no"?>
<!-- Creator: CorelDRAW X5 -->

<svg
        xmlns:dc="http://purl.org/dc/elements/1.1/"
        xmlns:cc="http://creativecommons.org/ns#"
        xmlns:rdf="http://www.w3.org/1999/02/22-rdf-syntax-ns#"
        xmlns:sodipodi="http://sodipodi.sourceforge.net/DTD/sodipodi-0.dtd"
        xmlns:inkscape="http://www.inkscape.org/namespaces/inkscape"
        xmlns="http://www.w3.org/2000/svg"
        xml:space="preserve"
        width="67.5358mm"
        height="64.6992mm"
        style="shape-rendering:geometricPrecision; text-rendering:geometricPrecision; image-rendering:optimizeQuality; fill-rule:evenodd; clip-rule:evenodd"
        viewBox="0 0 2909 2787"
        version="1.1"
        id="svg126"
        sodipodi:docname="noc.svg"
        inkscape:export-filename="/home/abrikos/Documents/academy/НОЦ СЕВЕР логотип.png"
        inkscape:export-xdpi="96"
        inkscape:export-ydpi="96"
        inkscape:version="0.92.5 (2060ec1f9f, 2020-04-08)"><metadata
   id="metadata130"><rdf:RDF><cc:Work
       rdf:about=""><dc:format>image/svg+xml</dc:format><dc:type
        rdf:resource="http://purl.org/dc/dcmitype/StillImage"/></cc:Work></rdf:RDF></metadata>
    <sodipodi:namedview
            pagecolor="#ffffff"
            bordercolor="#666666"
            borderopacity="1"
            objecttolerance="10"
            gridtolerance="10"
            guidetolerance="10"
            inkscape:pageopacity="0"
            inkscape:pageshadow="2"
            inkscape:window-width="2560"
            inkscape:window-height="1336"
            id="namedview128"
            showgrid="false"
            inkscape:zoom="1.6742762"
            inkscape:cx="31.828237"
            inkscape:cy="104.11787"
            inkscape:window-x="0"
            inkscape:window-y="1051"
            inkscape:window-maximized="1"
            inkscape:current-layer="svg126"/>
    <defs
            id="defs99">
  <style
          type="text/css"
          id="style97">
   <![CDATA[
    .fil2 {fill:#013DB9}
    .fil0 {fill:#FEFEFE;fill-rule:nonzero}
    .fil1 {fill:#013DB9;fill-rule:nonzero}
   ]]>
  </style>
 </defs>
    <circle
            style="fill:#ffffff;stroke:#0000ff;stroke-width:10.54646969"
            id="path132"
            cx="1459.7551"
            cy="1394.9119"
            r="1344.8623"
            inkscape:export-xdpi="96.051414"
            inkscape:export-ydpi="96.051414"/>
    <g
            id="Layer_x0020_1"
            inkscape:export-xdpi="96.051414"
            inkscape:export-ydpi="96.051414"
            transform="matrix(0.79545762,0,0,0.79545762,298.33454,231.16964)">
  <metadata
          id="CorelCorpID_0Corel-Layer"/>
        <g
                id="_472555432">
   <g
           id="g120">
    <path
            class="fil0"
            d="m 1935,37 c 34,-20 67,-34 78,-36 v 0 c 13,-2 26,-2 37,6 19,15 26,40 26,58 0,26 8,45 22,66 15,22 22,48 -2,89 l -15,30 c -118,176 -219,468 -250,682 -17,115 -14,243 11,306 16,39 45,96 84,137 89,91 171,115 293,127 77,8 161,13 231,33 73,21 107,41 108,76 1,28 -8,49 -24,70 -55,72 -179,80 -267,111 -64,23 -132,46 -192,61 -64,17 -118,18 -170,16 -63,-2 -123,-20 -194,-35 -38,-8 -56,-14 -77,27 -29,57 -43,174 -44,203 -2,42 -4,56 -4,98 h -264 c -14,-71 -30,-117 -34,-189 -3,-56 4,-92 5,-113 1,-28 -9,-25 -61,2 -44,21 -101,35 -149,40 -43,5 -75,2 -102,8 -24,6 -37,20 -41,38 -9,34 14,72 37,98 46,52 139,98 188,118 l -791,-18 -65,13 c 0,0 7,-16 -23,-37 -23,-16 -52,-10 -97,-58 C 114,1984 30,1856 21,1694 11,1520 59,1389 182,1263 310,1132 553,1006 725,955 c 127,-37 235,-71 336,-110 97,-38 160,-74 178,-103 94,-151 159,-338 280,-472 43,-48 81,-88 161,-134 49,-28 93,-58 118,-35 16,16 116,-52 135,-64 z"
            id="path102"
            inkscape:connector-curvature="0"
            style="fill:#fefefe;fill-rule:nonzero"/>
       <path
               class="fil1"
               d="m 1935,37 c 34,-20 67,-34 78,-36 v 0 c 13,-2 26,-2 37,6 19,15 26,40 26,58 0,26 8,45 22,66 15,22 22,48 -2,89 l -15,30 c -118,176 -219,468 -250,682 -17,115 -14,243 11,306 16,39 45,96 84,137 89,91 171,115 293,127 77,8 161,13 231,33 73,21 107,41 108,76 1,28 -8,49 -24,70 -55,72 -179,80 -267,111 -64,23 -132,46 -192,61 -64,17 -118,18 -170,16 -63,-2 -123,-20 -194,-35 -38,-8 -56,-14 -77,27 -29,57 -43,174 -44,203 -2,42 -4,56 -4,98 h -264 c -14,-71 -30,-117 -34,-189 -3,-56 4,-92 5,-113 1,-28 -9,-25 -61,2 -44,21 -101,35 -149,40 -43,5 -75,2 -102,8 -24,6 -37,20 -41,38 -9,34 14,72 37,98 46,52 139,98 188,118 l -791,-18 -65,13 c 0,0 7,-16 -23,-37 -23,-16 -52,-10 -97,-58 C 114,1984 30,1856 21,1694 11,1520 59,1389 182,1263 310,1132 553,1006 725,955 c 127,-37 235,-71 336,-110 97,-38 160,-74 178,-103 94,-151 159,-338 280,-472 43,-48 81,-88 161,-134 49,-28 93,-58 118,-35 16,16 116,-52 135,-64 z m -569,1641 c 0,-20 -4,-50 -22,-83 -18,-32 -48,-69 -72,-125 -49,-113 -54,-299 -54,-299 31,199 111,389 276,513 90,67 151,94 251,119 54,13 117,24 169,27 28,3 96,-4 153,-18 47,-12 95,-27 141,-42 26,-8 64,-20 105,-31 67,-18 142,-38 174,-61 33,-24 56,-62 19,-84 -77,-45 -223,-44 -347,-63 -95,-14 -186,-50 -255,-121 -44,-45 -73,-97 -91,-143 -30,-73 -41,-217 -23,-340 26,-181 78,-336 152,-486 28,-56 59,-113 92,-171 20,-36 42,-65 45,-95 3,-26 -11,-51 -31,-64 -13,-8 -25,-12 -28,-16 -10,-14 8,-30 5,-42 -1,-7 -16,-20 -64,9 -20,12 -42,23 -64,36 -50,28 -87,56 -106,42 -26,-19 -110,31 -178,96 -126,119 -175,225 -255,375 -35,66 -60,132 -76,157 -31,50 -131,87 -244,127 -126,44 -267,88 -333,111 -163,61 -376,171 -488,285 -49,50 -93,105 -126,198 -79,222 19,416 114,528 14,16 41,43 64,40 62,-8 137,-85 150,-75 -64,78 -104,130 13,149 h 463 c -51,-52 -176,-54 -186,-86 62,10 150,22 174,-46 23,-64 17,-166 -13,-250 -29,-81 -90,-150 -159,-194 -69,-44 -146,-62 -225,-76 6,-4 120,-16 226,41 99,54 163,164 250,234 32,25 74,48 113,54 37,6 83,7 123,1 56,-10 169,-65 169,-132 z m 118,75 c -108,3 -129,110 -124,222 2,46 8,117 16,158 l 159,1 c 2,-85 11,-157 30,-241 11,-47 16,-80 -2,-105 -13,-18 -38,-35 -79,-34 z"
               id="path104"
               inkscape:connector-curvature="0"
               style="fill:#013db9;fill-rule:nonzero"/>
       <path
               class="fil1"
               d="m 2000,218 c 10,-9 22,-19 30,-28 20,-21 44,-58 44,-58 l 16,21 c 0,0 -26,34 -46,56 -16,17 -34,33 -47,39 -23,11 -33,1 3,-29 z"
               id="path106"
               inkscape:connector-curvature="0"
               style="fill:#013db9;fill-rule:nonzero"/>
       <path
               class="fil2"
               d="m 1782,221 c -10,14 -38,29 -38,29 0,0 -5,-41 7,-55 26,-33 41,12 32,26 z"
               id="path108"
               inkscape:connector-curvature="0"
               style="fill:#013db9"/>
       <path
               class="fil2"
               d="m 1526,383 c -16,12 -34,38 -5,56 29,17 67,18 76,17 15,-3 -11,-23 -32,-44 -16,-16 -23,-40 -39,-29 z"
               id="path110"
               inkscape:connector-curvature="0"
               style="fill:#013db9"/>
       <rect
               class="fil2"
               y="2131"
               width="2483"
               height="37"
               id="rect112"
               x="0"
               style="fill:#013db9"/>
       <polygon
               class="fil2"
               points="2171,1081 2068,1081 2068,1311 1996,1311 1996,781 2068,781 2068,1013 2171,1013 2171,781 2243,781 2243,1311 2171,1311 "
               id="polygon114"
               style="fill:#013db9"/>
       <polygon
               class="fil2"
               points="2909,1256 2909,1311 2909,1378 2836,1378 2836,1311 2793,1311 2691,1311 2633,1311 2618,1311 2618,781 2691,781 2691,1237 2793,1237 2793,781 2866,781 2866,1237 2909,1237 "
               id="polygon116"
               style="fill:#013db9"/>
       <path
               class="fil2"
               d="m 2421,782 h 20 c 64,0 116,52 116,116 v 304 c 0,64 -52,116 -116,116 h -20 c -64,0 -116,-52 -116,-116 V 898 c 0,-64 52,-116 116,-116 z m 7,70 h 7 c 22,0 41,18 41,41 v 314 c 0,22 -18,41 -41,41 h -7 c -22,0 -41,-18 -41,-41 V 893 c 0,-22 18,-41 41,-41 z"
               id="path118"
               inkscape:connector-curvature="0"
               style="fill:#013db9"/>
   </g>
            <path
                    class="fil2"
                    d="m 1975,2264 h 10 58 66 c 54,0 99,44 99,99 v 119 c 0,54 -44,99 -99,99 h -66 v 203 h -69 v -519 z m 461,451 42,-187 -42,-188 h -68 l 43,186 -43,188 h 68 z m -124,0 42,-187 -42,-188 h -68 l 43,186 -43,188 h 68 z m -1721,0 -42,-187 42,-188 h 68 l -43,186 43,188 h -68 z m 124,0 -42,-187 42,-188 h 68 l -43,186 43,188 h -68 z m 221,-454 h 20 c 62,0 114,51 114,114 v 56 h -80 v -61 c 0,-22 -18,-40 -40,-40 h -7 c -22,0 -40,18 -40,40 v 308 c 0,22 18,40 40,40 h 7 c 22,0 40,-18 40,-40 v -84 h 80 v 79 c 0,62 -51,114 -114,114 h -20 c -62,0 -114,-51 -114,-114 v -298 c 0,-62 51,-114 114,-114 z m 262,449 h 135 v 74 h -213 v 0 -74 -372 -74 h 78 135 v 74 h -135 v 148 h 110 v 74 h -110 z m 190,-446 h 12 v 0 h 119 c 62,0 113,51 113,113 v 39 c 0,36 -17,67 -43,88 30,23 50,62 50,107 v 44 c 0,71 -51,129 -113,129 h -60 -66 -12 v -519 z m 78,65 v 143 h 56 c 22,0 40,-18 40,-40 v -64 c 0,-22 -18,-40 -40,-40 h -56 z m 0,216 v 174 h 64 c 22,0 40,-20 40,-45 v -84 c 0,-25 -21,-44 -42,-44 h -61 z m 311,164 h 135 v 74 h -213 v 0 -74 -372 -74 h 78 135 v 74 h -135 v 148 h 110 v 74 h -110 z m 266,-382 v 190 h 44 c 25,0 46,-21 46,-46 v -97 c 0,-25 -21,-46 -46,-46 h -44 z"
                    id="path122"
                    inkscape:connector-curvature="0"
                    style="fill:#013db9"/>
  </g>
 </g>
</svg>
