<svg width="246" height="87" viewBox="0 0 246 87" fill="none" xmlns="http://www.w3.org/2000/svg">
<path d="M37.2306 37.656C33.8946 41.356 34.1813 47.072 37.8706 50.4213C41.5586 53.772 47.2546 53.492 50.5973 49.792C53.932 46.092 53.6466 40.3774 49.96 37.028C48.2346 35.46 46.068 34.688 43.9093 34.688C41.4546 34.688 39.0093 35.688 37.2306 37.656" fill="url(#paint0_radial)"/>
<path d="M18.0959 9.18934C31.3613 2.76134 40.552 7.19735 46.2586 12.8107C47.0173 13.552 47.7146 14.3133 48.3479 15.072C51.9746 19.4147 53.6693 23.684 53.6693 23.684C55.984 24.1133 58.144 24.232 60.16 24.1333C60.2906 24.1253 60.412 24.1253 60.5453 24.1173C60.6653 24.1067 60.7746 24.092 60.8946 24.0813C65.3573 23.68 71.1533 21.9693 76.4493 16.6587C76.632 16.476 76.8133 16.2827 76.9946 16.092C76.176 15.1133 75.3293 14.148 74.4133 13.2267C65.9786 4.82132 54.9506 0.618666 43.9253 0.618666C34.8306 0.617333 25.7386 3.47601 18.0959 9.18934Z" fill="url(#paint1_linear)"/>
<path d="M1.98402 32.0573C-3.60398 53.056 7.248 74.528 26.6467 82.848C14.448 74.5733 13.6947 64.3973 15.7013 56.648C15.9653 55.62 16.276 54.6373 16.6147 53.7079C18.5653 48.3946 21.4133 44.792 21.4133 44.792C20.6307 42.5733 19.6507 40.6413 18.556 38.948C18.4853 38.8386 18.4253 38.7333 18.3507 38.6226C18.2813 38.5253 18.2134 38.4333 18.1454 38.3373C15.5654 34.6733 11.1867 30.5093 3.94134 28.5773C3.69067 28.5106 3.43334 28.452 3.17734 28.3893C2.73868 29.5893 2.32536 30.8013 1.98402 32.0573" fill="url(#paint2_linear)"/>
<path d="M69.0453 61.2414C68.0226 61.5267 67.0173 61.7467 66.0439 61.9187C60.4679 62.888 55.9239 62.2213 55.9239 62.2213C54.3933 64.0093 53.212 65.824 52.2893 67.6173C52.2333 67.7333 52.1719 67.84 52.1119 67.96C52.0613 68.068 52.0173 68.172 51.9666 68.28C50.0826 72.344 48.6679 78.2187 50.6186 85.4613C50.6839 85.7107 50.7639 85.9653 50.8373 86.2173C52.0959 85.9973 53.3533 85.7467 54.6093 85.4134C75.5893 79.756 88.7586 59.6213 86.2613 38.66C85.1973 53.3613 76.7626 59.104 69.0453 61.2414" fill="url(#paint3_linear)"/>
<path d="M18.096 9.18935C18.096 9.18935 8.72936 15.056 3.83603 26.8293C5.1187 27.0507 18.1827 29.684 23.0493 44.2014C24.24 43.4414 27.892 40.556 30.3493 32.6027C33.316 22.9893 38.952 15.8974 46.2587 12.8107C46.2587 12.8107 41.2747 5.70669 31.152 5.70669C27.4787 5.70669 23.1293 6.64135 18.096 9.18935" fill="url(#paint4_linear)"/>
<path d="M26.6466 82.848C26.6466 82.848 36.396 88.0174 49.024 86.38C48.796 85.7507 47.7693 82.684 47.768 78.4053C47.7653 73.5333 49.12 67.0827 54.532 61.0053L54.592 60.9107C53.7093 59.968 50.616 57.6427 42.6613 59.4547C32.852 61.6907 22.0293 61.4333 15.7013 56.648C15.7013 56.648 8.90529 71.2573 26.6466 82.848" fill="url(#paint5_linear)"/>
<path d="M59.0306 26.1493C57.248 26.1493 55.3573 25.9693 53.3586 25.556L53.2626 25.5333C52.8986 26.8733 52.5973 30.6653 57.9999 36.488C64.8373 43.8667 70.0239 53.3693 69.0453 61.2413C69.0453 61.2413 85.0986 59.8213 86.2613 38.66C86.2613 38.66 85.8653 27.6213 78.1239 17.4987C76.7279 19.1933 70.0973 26.1413 59.0306 26.1493" fill="url(#paint6_linear)"/>
<path d="M106.077 44.172H108.531C111.224 44.172 112.84 43.124 112.84 40.9093C112.84 38.576 111.313 37.68 108.561 37.68H106.077V44.172ZM106.167 54.6747H101.679V33.728H108.889C114.156 33.728 117.477 35.9133 117.477 40.7293C117.477 45.4587 114.067 48.1213 108.471 48.1213H106.167V54.6747Z" fill="#414142"/>
<path d="M136.251 44.2007C136.251 39.4447 134.067 37.3207 130.805 37.3207C127.841 37.3207 125.508 39.534 125.508 44.2007C125.508 48.8687 127.933 51.0833 131.073 51.0833C134.125 51.0833 136.251 48.898 136.251 44.2007ZM120.751 44.2007C120.751 37.1713 125.029 33.3687 130.805 33.3687C137.268 33.3687 141.009 37.47 141.009 44.2007C141.009 51.6527 136.669 55.034 130.924 55.034C124.851 55.034 120.751 51.2313 120.751 44.2007Z" fill="#414142"/>
<path d="M160.98 53.8361C159.901 54.4054 158.376 55.0334 155.322 55.0334C148.921 55.0334 144.702 51.3548 144.702 44.4708C144.702 37.2588 148.921 33.3681 155.772 33.3681C158.048 33.3681 159.932 33.8494 161.038 34.3574L160.052 38.1281C158.796 37.7068 157.358 37.4988 156.401 37.4988C152.272 37.4988 149.458 39.5628 149.458 44.2001C149.458 48.6308 152.152 50.8748 156.37 50.8748C157.328 50.8748 158.796 50.6041 160.081 50.0654L160.98 53.8361Z" fill="#414142"/>
<path d="M169.337 46.6266H176.55L173.048 36.7812H172.929L169.337 46.6266ZM177.418 49.0799H168.47L166.436 54.6746H163.713L171.701 33.7279H174.394L182.234 54.6746H179.422L177.418 49.0799Z" fill="#414142"/>
<path d="M191.582 54.6747H188.888V36.2413H182.694V33.728H197.776V36.2413H191.582V54.6747Z" fill="#414142"/>
<path d="M216.728 44.2007C216.728 38.4553 214.154 35.9433 210.024 35.9433C206.344 35.9433 203.502 38.606 203.502 44.2007C203.502 49.7073 206.253 52.4593 210.384 52.4593C214.305 52.4593 216.728 49.6167 216.728 44.2007ZM200.626 44.2007C200.626 37.4993 204.488 33.43 210.024 33.43C216.248 33.43 219.598 37.8567 219.598 44.2007C219.598 51.3233 215.59 54.974 210.116 54.974C204.31 54.974 200.626 50.8433 200.626 44.2007Z" fill="#414142"/>
<path d="M245.615 54.6747H242.922L241.636 38.3067L236.338 54.6747H233.526L228.259 38.3667L226.942 54.6747H224.252L226.044 33.728H229.338L234.991 51.7413L240.528 33.728H243.822L245.615 54.6747Z" fill="#414142"/>
<defs>
<radialGradient id="paint0_radial" cx="0" cy="0" r="1" gradientUnits="userSpaceOnUse" gradientTransform="translate(41.031 38.6886) rotate(0.0554295) scale(12.6802 12.717)">
<stop stop-color="#4496D1"/>
<stop offset="1" stop-color="#14256D"/>
</radialGradient>
<linearGradient id="paint1_linear" x1="31.5364" y1="3.51165" x2="69.4697" y2="18.7868" gradientUnits="userSpaceOnUse">
<stop stop-color="#4496D1"/>
<stop offset="1" stop-color="#14256D"/>
</linearGradient>
<linearGradient id="paint2_linear" x1="15.0106" y1="74.0465" x2="9.27227" y2="33.5587" gradientUnits="userSpaceOnUse">
<stop stop-color="#4496D1"/>
<stop offset="1" stop-color="#14256D"/>
</linearGradient>
<linearGradient id="paint3_linear" x1="84.4603" y1="53.1402" x2="52.2655" y2="78.3527" gradientUnits="userSpaceOnUse">
<stop stop-color="#4496D1"/>
<stop offset="1" stop-color="#14256D"/>
</linearGradient>
<linearGradient id="paint4_linear" x1="16.3622" y1="32.5491" x2="33.4133" y2="6.3845" gradientUnits="userSpaceOnUse">
<stop stop-color="#4496D1"/>
<stop offset="1" stop-color="#14256D"/>
</linearGradient>
<linearGradient id="paint5_linear" x1="48.6209" y1="69.8636" x2="18.0332" y2="72.9818" gradientUnits="userSpaceOnUse">
<stop stop-color="#4496D1"/>
<stop offset="1" stop-color="#14256D"/>
</linearGradient>
<linearGradient id="paint6_linear" x1="68.3145" y1="25.6185" x2="74.5508" y2="57.097" gradientUnits="userSpaceOnUse">
<stop stop-color="#4496D1"/>
<stop offset="1" stop-color="#14256D"/>
</linearGradient>
</defs>
</svg>
